STARTFONT 2.1
FONT -FontForge-Zen Tokyo Zoo-Book-R-Normal--32-320-72-72-P-151-ISO10646-1
SIZE 32 72 72
FONTBOUNDINGBOX 41 41 -3 -7
COMMENT "Generated by fontforge, http://fontforge.sourceforge.net"
COMMENT "Copyright 2021 The Zen Tokyo Zoo Project Authors (https://github.com/googlefonts/zen-tokyo-zoo)"
STARTPROPERTIES 39
FOUNDRY "FontForge"
FAMILY_NAME "Zen Tokyo Zoo"
WEIGHT_NAME "Book"
SLANT "R"
SETWIDTH_NAME "Normal"
ADD_STYLE_NAME ""
PIXEL_SIZE 32
POINT_SIZE 320
RESOLUTION_X 72
RESOLUTION_Y 72
SPACING "P"
AVERAGE_WIDTH 151
CHARSET_REGISTRY "ISO10646"
CHARSET_ENCODING "1"
FONTNAME_REGISTRY ""
CHARSET_COLLECTIONS "ISO10646-1"
FONT_NAME "ZenTokyoZoo-Regular"
FACE_NAME "Zen Tokyo Zoo Regular"
COPYRIGHT "Copyright 2021 The Zen Tokyo Zoo Project Authors (https://github.com/googlefonts/zen-tokyo-zoo)"
FONT_VERSION "1.002; ttfautohint (v1.8.3)"
FONT_ASCENT 26
FONT_DESCENT 6
UNDERLINE_POSITION -5
UNDERLINE_THICKNESS 1
X_HEIGHT 12
CAP_HEIGHT 24
RAW_ASCENT 800
RAW_DESCENT 200
NORM_SPACE 9
RELATIVE_WEIGHT 40
RELATIVE_SETWIDTH 50
SUPERSCRIPT_X 0
SUPERSCRIPT_Y 11
SUPERSCRIPT_SIZE 19
SUBSCRIPT_X 0
SUBSCRIPT_Y 2
SUBSCRIPT_SIZE 19
AVG_LOWERCASE_WIDTH 133
AVG_UPPERCASE_WIDTH 243
ENDPROPERTIES
CHARS 338
STARTCHAR CR
ENCODING 13
SWIDTH 600 0
DWIDTH 19 0
BBX 1 1 0 0
BITMAP
00
ENDCHAR
STARTCHAR space
ENCODING 32
SWIDTH 280 0
DWIDTH 9 0
BBX 1 1 0 0
BITMAP
00
ENDCHAR
STARTCHAR exclam
ENCODING 33
SWIDTH 196 0
DWIDTH 6 0
BBX 3 13 2 0
BITMAP
A0
A0
A0
A0
A0
A0
A0
A0
A0
00
A0
A0
A0
ENDCHAR
STARTCHAR quotedbl
ENCODING 34
SWIDTH 302 0
DWIDTH 10 0
BBX 8 4 1 9
BITMAP
A5
A5
A5
A5
ENDCHAR
STARTCHAR numbersign
ENCODING 35
SWIDTH 513 0
DWIDTH 16 0
BBX 13 13 2 0
BITMAP
14A0
1400
57F8
2400
6BF8
2800
0140
FD50
0140
FD50
0140
5240
5280
ENDCHAR
STARTCHAR dollar
ENCODING 36
SWIDTH 379 0
DWIDTH 12 0
BBX 10 16 1 -1
BITMAP
0400
0400
2500
4480
9540
A500
B000
4F00
3080
0E40
0140
A540
9640
6580
1500
0400
ENDCHAR
STARTCHAR percent
ENCODING 37
SWIDTH 493 0
DWIDTH 16 0
BBX 14 13 1 0
BITMAP
7868
F450
B4A0
B520
CD40
7A80
0580
0578
0ABC
14D4
14B4
288C
5078
ENDCHAR
STARTCHAR ampersand
ENCODING 38
SWIDTH 487 0
DWIDTH 16 0
BBX 13 13 2 0
BITMAP
1F00
3E80
2A80
2A80
2A80
2480
1300
4B58
A910
A4A0
BAC0
C140
7DB0
ENDCHAR
STARTCHAR quotesingle
ENCODING 39
SWIDTH 146 0
DWIDTH 5 0
BBX 3 4 1 9
BITMAP
A0
A0
A0
A0
ENDCHAR
STARTCHAR parenleft
ENCODING 40
SWIDTH 210 0
DWIDTH 7 0
BBX 5 15 1 -1
BITMAP
28
58
50
50
A0
A0
A0
A0
A0
A0
A0
90
50
50
28
ENDCHAR
STARTCHAR parenright
ENCODING 41
SWIDTH 210 0
DWIDTH 7 0
BBX 5 15 1 -1
BITMAP
A0
A0
50
50
50
48
28
28
28
28
50
50
50
90
A0
ENDCHAR
STARTCHAR asterisk
ENCODING 42
SWIDTH 358 0
DWIDTH 11 0
BBX 8 8 2 5
BITMAP
28
A9
46
C3
00
7C
6A
24
ENDCHAR
STARTCHAR plus
ENCODING 43
SWIDTH 394 0
DWIDTH 13 0
BBX 10 9 1 2
BITMAP
0A00
0A00
0A00
EAC0
0A00
EAC0
0A00
0A00
0A00
ENDCHAR
STARTCHAR comma
ENCODING 44
SWIDTH 216 0
DWIDTH 7 0
BBX 5 4 1 -1
BITMAP
58
50
50
B0
ENDCHAR
STARTCHAR hyphen
ENCODING 45
SWIDTH 326 0
DWIDTH 10 0
BBX 7 3 2 5
BITMAP
FE
00
FE
ENDCHAR
STARTCHAR period
ENCODING 46
SWIDTH 176 0
DWIDTH 6 0
BBX 3 3 1 0
BITMAP
A0
A0
A0
ENDCHAR
STARTCHAR slash
ENCODING 47
SWIDTH 298 0
DWIDTH 10 0
BBX 8 13 1 0
BITMAP
0B
0A
1A
14
14
34
28
28
68
50
50
90
A0
ENDCHAR
STARTCHAR zero
ENCODING 48
SWIDTH 306 0
DWIDTH 10 0
BBX 8 13 1 0
BITMAP
3C
5A
A5
A5
A5
A5
A5
A5
A5
A5
99
42
3C
ENDCHAR
STARTCHAR one
ENCODING 49
SWIDTH 306 0
DWIDTH 10 0
BBX 6 13 2 0
BITMAP
D4
14
D4
14
14
14
14
14
14
14
14
14
14
ENDCHAR
STARTCHAR two
ENCODING 50
SWIDTH 299 0
DWIDTH 10 0
BBX 8 13 1 0
BITMAP
3C
42
9A
A5
0A
12
24
48
D0
00
FE
00
FE
ENDCHAR
STARTCHAR three
ENCODING 51
SWIDTH 324 0
DWIDTH 10 0
BBX 8 13 1 0
BITMAP
3C
43
9D
A5
01
0C
03
09
05
A5
99
43
3C
ENDCHAR
STARTCHAR four
ENCODING 52
SWIDTH 339 0
DWIDTH 11 0
BBX 9 13 1 0
BITMAP
0A00
1200
1400
2400
2800
4800
5280
8280
F280
0280
F280
0280
0280
ENDCHAR
STARTCHAR five
ENCODING 53
SWIDTH 363 0
DWIDTH 12 0
BBX 8 13 2 0
BITMAP
FF
00
FF
00
90
98
96
99
05
A5
99
42
3C
ENDCHAR
STARTCHAR six
ENCODING 54
SWIDTH 306 0
DWIDTH 10 0
BBX 8 13 1 0
BITMAP
3C
5A
A5
A0
A0
AC
A2
A9
AD
A5
99
42
3C
ENDCHAR
STARTCHAR seven
ENCODING 55
SWIDTH 298 0
DWIDTH 10 0
BBX 8 13 1 0
BITMAP
FF
00
00
FF
00
0A
0A
14
14
14
24
28
28
ENDCHAR
STARTCHAR eight
ENCODING 56
SWIDTH 306 0
DWIDTH 10 0
BBX 8 13 1 0
BITMAP
3C
5A
A5
A5
93
8C
66
B3
A9
A5
99
42
3C
ENDCHAR
STARTCHAR nine
ENCODING 57
SWIDTH 306 0
DWIDTH 10 0
BBX 8 13 1 0
BITMAP
3C
5A
A5
A5
95
45
35
05
05
A5
99
42
3C
ENDCHAR
STARTCHAR colon
ENCODING 58
SWIDTH 176 0
DWIDTH 6 0
BBX 3 8 1 0
BITMAP
A0
A0
A0
00
00
A0
A0
A0
ENDCHAR
STARTCHAR semicolon
ENCODING 59
SWIDTH 217 0
DWIDTH 7 0
BBX 5 9 1 -1
BITMAP
28
28
28
00
00
48
50
50
B0
ENDCHAR
STARTCHAR less
ENCODING 60
SWIDTH 450 0
DWIDTH 14 0
BBX 12 13 1 0
BITMAP
0010
0060
0190
0330
04C0
3900
CC00
3300
18C0
0630
0190
0060
0030
ENDCHAR
STARTCHAR equal
ENCODING 61
SWIDTH 344 0
DWIDTH 11 0
BBX 9 8 1 1
BITMAP
FF80
0000
FF80
0000
0000
FF80
0000
FF80
ENDCHAR
STARTCHAR greater
ENCODING 62
SWIDTH 450 0
DWIDTH 14 0
BBX 12 14 1 0
BITMAP
8000
C000
3000
8C00
6600
1980
0C60
0330
0CC0
3300
C600
9800
6000
8000
ENDCHAR
STARTCHAR question
ENCODING 63
SWIDTH 346 0
DWIDTH 11 0
BBX 7 13 2 0
BITMAP
7C
C6
BA
AA
0A
1A
36
2C
28
28
00
28
28
ENDCHAR
STARTCHAR at
ENCODING 64
SWIDTH 490 0
DWIDTH 16 0
BBX 14 13 1 0
BITMAP
0FC0
37A0
5870
67D8
AFD4
D4D4
D4D4
D7D4
A8B8
6770
7840
37A0
0FC0
ENDCHAR
STARTCHAR A
ENCODING 65
SWIDTH 798 0
DWIDTH 26 0
BBX 24 25 1 0
BITMAP
005400
009500
00AD00
00A900
016D00
015480
015280
029A80
02AA40
04A540
052540
0544A0
0942A0
0A8290
0A8250
148150
157D48
2500A8
297EA8
2A0094
4AFF54
540052
54004A
A4002A
A8002D
ENDCHAR
STARTCHAR B
ENCODING 66
SWIDTH 784 0
DWIDTH 25 0
BBX 22 25 2 0
BITMAP
ABFF00
A800C0
ABFF20
A80090
ABFE58
A80128
A800A8
A800A8
A80128
ABFE50
A80090
ABFF20
A800C8
ABFF28
A80054
A800D4
A80054
A80054
A80054
A800A4
ABFF28
A800C8
ABFF10
A80060
ABFF80
ENDCHAR
STARTCHAR C
ENCODING 67
SWIDTH 776 0
DWIDTH 25 0
BBX 23 25 1 0
BITMAP
007FC0
01BFB8
07C066
0B3F98
14C0E8
290030
7A0000
540000
540000
A80000
A80000
A80000
A80000
A80000
A80000
940000
540000
5A0000
690030
24C0E8
133F18
09C066
063F88
018070
007F80
ENDCHAR
STARTCHAR D
ENCODING 68
SWIDTH 806 0
DWIDTH 26 0
BBX 23 25 2 0
BITMAP
ABFC00
A80700
ABF8C0
A80760
ABF990
A80658
A80128
A800B4
A80054
A80054
A8004A
A8002A
A8002A
A8006A
A8004A
A80054
A800D4
A800B4
A80128
A80648
ABF990
A80760
ABF8C0
A80700
ABFC00
ENDCHAR
STARTCHAR E
ENCODING 69
SWIDTH 677 0
DWIDTH 22 0
BBX 19 25 2 0
BITMAP
ABFFE0
A80000
ABFFE0
A80000
ABFFE0
A80000
A80000
A80000
A80000
A80000
ABFF80
A80000
ABFF80
A80000
ABFF80
A80000
A80000
A80000
A80000
A80000
ABFFE0
A80000
ABFFE0
A80000
ABFFE0
ENDCHAR
STARTCHAR F
ENCODING 70
SWIDTH 677 0
DWIDTH 22 0
BBX 19 25 2 0
BITMAP
ABFFE0
A80000
ABFFE0
A80000
ABFFE0
A80000
A80000
A80000
A80000
A80000
ABFF80
A80000
ABFF80
A80000
ABFF80
A80000
A80000
A80000
A80000
A80000
A80000
A80000
A80000
A80000
A80000
ENDCHAR
STARTCHAR G
ENCODING 71
SWIDTH 872 0
DWIDTH 28 0
BBX 26 25 1 0
BITMAP
007FC000
01BFB000
07C06C00
0B3F9A00
14C0ED80
29003600
7A001A00
54000800
54000000
A8000000
A8000000
A807FFC0
A8000000
A807FFC0
A8000000
9407FFC0
54000000
5A001AC0
69003680
24C0ED00
133F1B00
09C06600
063F8C00
01807000
007F8000
ENDCHAR
STARTCHAR H
ENCODING 72
SWIDTH 781 0
DWIDTH 25 0
BBX 21 25 2 0
BITMAP
A800A8
A800A8
A800A8
A800A8
A800A8
A800A8
A800A8
A800A8
A800A8
A800A8
ABFEA8
A800A8
ABFEA8
A800A8
ABFEA8
A800A8
A800A8
A800A8
A800A8
A800A8
A800A8
A800A8
A800A8
A800A8
A800A8
ENDCHAR
STARTCHAR I
ENCODING 73
SWIDTH 262 0
DWIDTH 8 0
BBX 5 25 2 0
BITMAP
A8
A8
A8
A8
A8
A8
A8
A8
A8
A8
A8
A8
A8
A8
A8
A8
A8
A8
A8
A8
A8
A8
A8
A8
A8
ENDCHAR
STARTCHAR J
ENCODING 74
SWIDTH 674 0
DWIDTH 22 0
BBX 19 25 1 0
BITMAP
0002A0
0002A0
0002A0
0002A0
0002A0
0002A0
0002A0
0002A0
0002A0
0002A0
0002A0
0002A0
0002A0
0002A0
0002A0
A802A0
A802A0
A806A0
A40520
D60940
59F240
2C0C80
33F100
0C0600
03F800
ENDCHAR
STARTCHAR K
ENCODING 75
SWIDTH 739 0
DWIDTH 24 0
BBX 21 25 2 0
BITMAP
A80358
A80690
A80520
A80940
A812C0
A83480
A82900
A84A00
A81600
A8A400
AA4800
A96800
ADA000
AA9000
AB4800
A92C00
A89600
A85A00
A82900
A83480
A812C0
A80940
A805A0
A80690
A80368
ENDCHAR
STARTCHAR L
ENCODING 76
SWIDTH 604 0
DWIDTH 19 0
BBX 17 25 2 0
BITMAP
A80000
A80000
A80000
A80000
A80000
A80000
A80000
A80000
A80000
A80000
A80000
A80000
A80000
A80000
A80000
A80000
A80000
A80000
A80000
A80000
ABFF80
A80000
ABFF80
A80000
ABFF80
ENDCHAR
STARTCHAR M
ENCODING 77
SWIDTH 909 0
DWIDTH 29 0
BBX 25 25 2 0
BITMAP
A8000A80
A8001A80
AA002A80
AA002A80
A9004A80
AD80AA80
AA81AA80
AA416A80
A9224A80
AAA6AA80
AAD52A80
A94B4A80
A9A8CA80
A8948A80
A8520A80
A82B0A80
A8240A80
A8140A80
A8080A80
A8080A80
A8000A80
A8000A80
A8000A80
A8000A80
A8000A80
ENDCHAR
STARTCHAR N
ENCODING 78
SWIDTH 796 0
DWIDTH 25 0
BBX 22 25 2 0
BITMAP
A80054
AC0054
AA0054
AA0054
A90054
AA8054
AAC054
A94054
A92054
AA9054
AA5854
A96854
A8A454
A89654
A84A54
A82954
A83454
A81254
A80B54
A80554
A80454
A80254
A80154
A80154
A80054
ENDCHAR
STARTCHAR O
ENCODING 79
SWIDTH 894 0
DWIDTH 29 0
BBX 27 25 1 0
BITMAP
007F8000
01BFF000
07C06C00
0B3F9E00
14C0EF00
29003780
7A001A80
54000940
54000540
A8000540
A8000540
A80004A0
A80004A0
A8000520
A8000540
94000540
54000940
5A001A40
69003680
24C0ED80
133F1B00
09C06600
063F8C00
01807000
007F8000
ENDCHAR
STARTCHAR P
ENCODING 80
SWIDTH 743 0
DWIDTH 24 0
BBX 21 25 2 0
BITMAP
ABFF00
A800C0
ABFF20
A80090
ABFE58
A80128
A800A8
A800A8
A80128
ABFE50
A80090
ABFF20
A800C0
ABFF00
A80000
A80000
A80000
A80000
A80000
A80000
A80000
A80000
A80000
A80000
A80000
ENDCHAR
STARTCHAR Q
ENCODING 81
SWIDTH 911 0
DWIDTH 29 0
BBX 27 25 1 0
BITMAP
007F8000
01BFF000
07C06C00
0B3F9E00
14C0EF00
29003780
7A001A80
54000940
54000540
A8000540
A8000560
A80004A0
A80004A0
A8001520
A8003540
94004940
5400A540
5A0192C0
69004900
24C0A480
133F1240
09C06920
063F8480
01807240
007F8100
ENDCHAR
STARTCHAR R
ENCODING 82
SWIDTH 745 0
DWIDTH 24 0
BBX 21 25 2 0
BITMAP
ABFF00
A800C0
ABFF20
A80090
ABFE58
A80128
A800A8
A800A8
A80128
ABFE50
A80090
ABFF20
A800C0
ABFF00
A80000
A81500
A81280
A80A80
A80A40
A80540
A80520
A804A0
A80290
A80250
A80158
ENDCHAR
STARTCHAR S
ENCODING 83
SWIDTH 660 0
DWIDTH 21 0
BBX 19 25 1 0
BITMAP
03F800
0FFF00
3C0680
79F340
560D60
AC04A0
A80600
A40000
930000
58E000
461C00
21C300
183880
078640
007120
000CA0
0002A0
0002A0
2802A0
B60DA0
53F940
4C0640
33F980
1C0700
03F800
ENDCHAR
STARTCHAR T
ENCODING 84
SWIDTH 641 0
DWIDTH 21 0
BBX 20 25 0 0
BITMAP
FFFFF0
000000
FFFFF0
000000
FFFFF0
000000
00A800
00A800
00A800
00A800
00A800
00A800
00A800
00A800
00A800
00A800
00A800
00A800
00A800
00A800
00A800
00A800
00A800
00A800
00A800
ENDCHAR
STARTCHAR U
ENCODING 85
SWIDTH 702 0
DWIDTH 22 0
BBX 19 25 2 0
BITMAP
A802A0
A802A0
A802A0
A802A0
A802A0
A802A0
A802A0
A802A0
A802A0
A802A0
A802A0
A802A0
A802A0
A802A0
A802A0
A802A0
A802A0
A804A0
AC0540
960940
59F2C0
6C0C80
33F100
0C0600
03F800
ENDCHAR
STARTCHAR V
ENCODING 86
SWIDTH 758 0
DWIDTH 24 0
BBX 23 25 1 0
BITMAP
A80056
A40054
540094
5400A8
5200A8
2A0128
2A0150
2D0150
150250
1502A0
1282A0
0A85A0
0A8540
094540
054B40
056A80
04AA80
02AE80
029500
025500
015500
014A00
012A00
00AA00
00B400
ENDCHAR
STARTCHAR W
ENCODING 87
SWIDTH 972 0
DWIDTH 31 0
BBX 29 25 1 0
BITMAP
A80D40A8
A80A40A8
A40A8128
540A8148
54128150
5414C150
52154250
2A152290
2A2522A0
2A29A2A0
252AA4A0
152A9520
154A5540
15535540
12D55540
0A954A40
0A95AA80
0A64AA80
0968AA80
0548A480
05485500
05285500
04A85500
02A04A00
02A02A00
ENDCHAR
STARTCHAR X
ENCODING 88
SWIDTH 712 0
DWIDTH 23 0
BBX 21 25 1 0
BITMAP
D60358
4A0290
2905A0
250D40
148A40
1AD280
095480
052D00
04AA00
029200
035E00
012800
00A400
029400
025200
056A00
05AD00
095480
0AD280
148A40
250D40
2905A0
4A0290
560250
A40168
ENDCHAR
STARTCHAR Y
ENCODING 89
SWIDTH 769 0
DWIDTH 25 0
BBX 24 25 0 0
BITMAP
D6002D
4B004A
2500D6
1480A4
1AC128
094358
052290
06B4A0
025160
014A40
01AC80
009480
005A00
000000
002A00
002A00
002A00
002A00
002A00
002A00
002A00
002A00
002A00
002A00
002A00
ENDCHAR
STARTCHAR Z
ENCODING 90
SWIDTH 708 0
DWIDTH 23 0
BBX 22 25 0 0
BITMAP
1FFEB4
000128
1FFD48
0002D0
1FF6A0
000520
000940
001AC0
001480
002500
002B00
005A00
009400
00A400
016800
035000
029000
04A000
0D6000
0A4000
12BFF0
158000
2D7FF0
4A0000
D6FFF0
ENDCHAR
STARTCHAR bracketleft
ENCODING 91
SWIDTH 320 0
DWIDTH 10 0
BBX 7 15 2 -1
BITMAP
AE
A0
A0
AE
A0
A0
A0
A0
A0
A0
A0
A0
AE
A0
AE
ENDCHAR
STARTCHAR backslash
ENCODING 92
SWIDTH 298 0
DWIDTH 10 0
BBX 8 13 1 0
BITMAP
A0
90
50
50
68
28
28
34
14
14
1A
0A
0B
ENDCHAR
STARTCHAR bracketright
ENCODING 93
SWIDTH 320 0
DWIDTH 10 0
BBX 7 15 2 -1
BITMAP
EA
0A
0A
EA
0A
0A
0A
0A
0A
0A
0A
0A
EA
0A
EA
ENDCHAR
STARTCHAR asciicircum
ENCODING 94
SWIDTH 309 0
DWIDTH 10 0
BBX 6 6 2 7
BITMAP
20
30
28
58
E8
B4
ENDCHAR
STARTCHAR underscore
ENCODING 95
SWIDTH 472 0
DWIDTH 15 0
BBX 12 3 2 0
BITMAP
FFF0
0000
FFF0
ENDCHAR
STARTCHAR grave
ENCODING 96
SWIDTH 195 0
DWIDTH 6 0
BBX 3 3 2 15
BITMAP
80
40
60
ENDCHAR
STARTCHAR a
ENCODING 97
SWIDTH 414 0
DWIDTH 13 0
BBX 13 13 0 0
BITMAP
0500
0980
0A80
0A40
1340
1540
1520
28A0
2FA0
2890
5850
5FD0
D068
ENDCHAR
STARTCHAR b
ENCODING 98
SWIDTH 423 0
DWIDTH 14 0
BBX 12 13 1 0
BITMAP
BF80
A040
BFA0
A0A0
A0A0
BFE0
A060
BFA0
A090
A090
BFA0
A060
BFC0
ENDCHAR
STARTCHAR c
ENCODING 99
SWIDTH 446 0
DWIDTH 14 0
BBX 12 13 1 0
BITMAP
0FC0
3020
6790
5860
9000
A000
A000
A000
9000
5860
6790
3020
0FC0
ENDCHAR
STARTCHAR d
ENCODING 100
SWIDTH 450 0
DWIDTH 14 0
BBX 12 13 1 0
BITMAP
BF00
A0C0
BF20
A090
A050
A050
A050
A050
A050
A090
BF20
A0C0
BF00
ENDCHAR
STARTCHAR e
ENCODING 101
SWIDTH 363 0
DWIDTH 12 0
BBX 10 13 1 0
BITMAP
BFC0
A000
BFC0
A000
A000
BF80
A000
BF80
A000
A000
BFC0
A000
BFC0
ENDCHAR
STARTCHAR f
ENCODING 102
SWIDTH 365 0
DWIDTH 12 0
BBX 10 13 1 0
BITMAP
BFC0
A000
BFC0
A000
A000
BF80
A000
BF80
A000
A000
A000
A000
A000
ENDCHAR
STARTCHAR g
ENCODING 103
SWIDTH 483 0
DWIDTH 15 0
BBX 14 13 1 0
BITMAP
0FC0
3020
6798
5860
9000
A0FC
A000
A0FC
9028
5848
6790
3060
0F80
ENDCHAR
STARTCHAR h
ENCODING 104
SWIDTH 428 0
DWIDTH 14 0
BBX 11 13 1 0
BITMAP
A0A0
A0A0
A0A0
A0A0
A0A0
BFA0
A0A0
BFA0
A0A0
A0A0
A0A0
A0A0
A0A0
ENDCHAR
STARTCHAR i
ENCODING 105
SWIDTH 176 0
DWIDTH 6 0
BBX 3 13 1 0
BITMAP
A0
A0
A0
A0
A0
A0
A0
A0
A0
A0
A0
A0
A0
ENDCHAR
STARTCHAR j
ENCODING 106
SWIDTH 390 0
DWIDTH 12 0
BBX 10 13 1 0
BITMAP
0140
0140
0140
0140
0140
0140
0140
0140
A140
B140
5EC0
6180
1E00
ENDCHAR
STARTCHAR k
ENCODING 107
SWIDTH 381 0
DWIDTH 12 0
BBX 11 13 1 0
BITMAP
A140
A2C0
A680
A500
A900
AA00
AE00
B600
BA00
A900
A480
A2C0
A160
ENDCHAR
STARTCHAR l
ENCODING 108
SWIDTH 330 0
DWIDTH 11 0
BBX 9 13 1 0
BITMAP
A000
A000
A000
A000
A000
A000
A000
A000
A000
A000
BF80
A000
BF80
ENDCHAR
STARTCHAR m
ENCODING 109
SWIDTH 501 0
DWIDTH 16 0
BBX 14 13 1 0
BITMAP
B034
B874
A854
A494
B334
AB54
A5D4
A694
A214
A114
A014
A014
A014
ENDCHAR
STARTCHAR n
ENCODING 110
SWIDTH 444 0
DWIDTH 14 0
BBX 12 13 1 0
BITMAP
B050
B050
A850
A450
B650
BA50
A950
A5D0
A2D0
A350
A150
A0D0
A0D0
ENDCHAR
STARTCHAR o
ENCODING 111
SWIDTH 494 0
DWIDTH 16 0
BBX 14 13 1 0
BITMAP
0FC0
3020
6790
5868
902C
A014
A014
A014
902C
5868
6790
3020
0FC0
ENDCHAR
STARTCHAR p
ENCODING 112
SWIDTH 412 0
DWIDTH 13 0
BBX 11 13 1 0
BITMAP
BF80
A040
BFA0
A0A0
A0A0
BFA0
A040
BF80
A000
A000
A000
A000
A000
ENDCHAR
STARTCHAR q
ENCODING 113
SWIDTH 494 0
DWIDTH 16 0
BBX 14 13 1 0
BITMAP
0FC0
3020
6790
5868
902C
A014
A014
A054
90A8
5998
67C8
3024
0FD0
ENDCHAR
STARTCHAR r
ENCODING 114
SWIDTH 412 0
DWIDTH 13 0
BBX 11 13 1 0
BITMAP
BF80
A040
BFA0
A0A0
A0A0
BFA0
A040
BF80
A280
A2C0
A140
A140
A1A0
ENDCHAR
STARTCHAR s
ENCODING 115
SWIDTH 379 0
DWIDTH 12 0
BBX 10 13 1 0
BITMAP
1F00
6080
9E40
A140
B000
CE00
7180
0E40
0140
A140
9E40
6080
3F00
ENDCHAR
STARTCHAR t
ENCODING 116
SWIDTH 349 0
DWIDTH 11 0
BBX 11 13 0 0
BITMAP
FFE0
0000
FFE0
0A00
0A00
0A00
0A00
0A00
0A00
0A00
0A00
0A00
0A00
ENDCHAR
STARTCHAR u
ENCODING 117
SWIDTH 400 0
DWIDTH 13 0
BBX 11 13 1 0
BITMAP
A120
A120
A120
A120
A120
A120
A120
A120
A140
9140
4E40
2080
1F00
ENDCHAR
STARTCHAR v
ENCODING 118
SWIDTH 394 0
DWIDTH 13 0
BBX 12 13 0 0
BITMAP
9050
5050
50A0
48A0
28A0
2940
3540
1540
1680
1A80
0A80
0B00
0D00
ENDCHAR
STARTCHAR w
ENCODING 119
SWIDTH 521 0
DWIDTH 17 0
BBX 16 13 0 0
BITMAP
B145
5145
5245
52CA
4AAA
2AAA
2CBA
2D94
1554
1554
1554
1648
0A28
ENDCHAR
STARTCHAR x
ENCODING 120
SWIDTH 369 0
DWIDTH 12 0
BBX 11 13 0 0
BITMAP
51A0
6940
2E40
1680
1280
0B00
0900
1D00
1680
26C0
2940
4920
D0A0
ENDCHAR
STARTCHAR y
ENCODING 121
SWIDTH 422 0
DWIDTH 14 0
BBX 13 13 0 0
BITMAP
D068
48D0
2CB0
1520
1340
0BC0
0D80
0000
0500
0500
0500
0500
0500
ENDCHAR
STARTCHAR z
ENCODING 122
SWIDTH 409 0
DWIDTH 13 0
BBX 11 13 1 0
BITMAP
FFE0
0000
FFE0
0240
0680
0D80
1B00
1600
2400
4800
FFE0
0000
FFE0
ENDCHAR
STARTCHAR braceleft
ENCODING 123
SWIDTH 443 0
DWIDTH 14 0
BBX 11 15 2 -1
BITMAP
0AE0
0A00
0A00
0AE0
0A00
0A00
EA00
0A00
EA00
0A00
0A00
0A00
0AE0
0A00
0AE0
ENDCHAR
STARTCHAR bar
ENCODING 124
SWIDTH 196 0
DWIDTH 6 0
BBX 3 15 2 -1
BITMAP
A0
A0
A0
A0
A0
A0
A0
A0
A0
A0
A0
A0
A0
A0
A0
ENDCHAR
STARTCHAR braceright
ENCODING 125
SWIDTH 506 0
DWIDTH 16 0
BBX 11 15 4 -1
BITMAP
EA00
0A00
0A00
EA00
0A00
0A00
0AE0
0A00
0AE0
0A00
0A00
0A00
EA00
0A00
EA00
ENDCHAR
STARTCHAR asciitilde
ENCODING 126
SWIDTH 450 0
DWIDTH 14 0
BBX 12 4 1 4
BITMAP
7C10
83E0
7C10
83E0
ENDCHAR
STARTCHAR uni00A0
ENCODING 160
SWIDTH 280 0
DWIDTH 9 0
BBX 1 1 0 0
BITMAP
00
ENDCHAR
STARTCHAR exclamdown
ENCODING 161
SWIDTH 196 0
DWIDTH 6 0
BBX 3 13 2 -3
BITMAP
A0
A0
A0
00
A0
A0
A0
A0
A0
A0
A0
A0
A0
ENDCHAR
STARTCHAR cent
ENCODING 162
SWIDTH 305 0
DWIDTH 10 0
BBX 9 15 0 -1
BITMAP
0A00
0A00
0000
1F00
6E80
5100
A000
A000
A000
5100
6E80
1F00
0000
0A00
0A00
ENDCHAR
STARTCHAR sterling
ENCODING 163
SWIDTH 408 0
DWIDTH 13 0
BBX 12 13 0 0
BITMAP
3F00
4180
5E40
0000
FF80
0000
FF80
0000
6800
0000
FFF0
0000
FFF0
ENDCHAR
STARTCHAR currency
ENCODING 164
SWIDTH 401 0
DWIDTH 13 0
BBX 11 10 1 1
BITMAP
6080
A1A0
CE60
5D40
2A80
2C80
1100
4E40
A1A0
6080
ENDCHAR
STARTCHAR yen
ENCODING 165
SWIDTH 423 0
DWIDTH 14 0
BBX 13 13 0 0
BITMAP
D068
48D0
24B0
1520
1340
0B40
0D80
0000
3570
0500
3570
0500
0500
ENDCHAR
STARTCHAR brokenbar
ENCODING 166
SWIDTH 196 0
DWIDTH 6 0
BBX 3 14 2 0
BITMAP
A0
A0
A0
A0
A0
A0
00
00
A0
A0
A0
A0
A0
A0
ENDCHAR
STARTCHAR section
ENCODING 167
SWIDTH 322 0
DWIDTH 10 0
BBX 8 15 1 -2
BITMAP
3E
7D
A2
B8
46
31
AD
A7
9D
63
1D
23
BD
43
3C
ENDCHAR
STARTCHAR dieresis
ENCODING 168
SWIDTH 287 0
DWIDTH 9 0
BBX 6 2 2 15
BITMAP
DC
C8
ENDCHAR
STARTCHAR copyright
ENCODING 169
SWIDTH 493 0
DWIDTH 16 0
BBX 14 14 1 0
BITMAP
0FC0
1060
6010
4008
8788
8CC4
8804
8804
8804
8C48
4788
6010
1060
0F80
ENDCHAR
STARTCHAR ordfeminine
ENCODING 170
SWIDTH 331 0
DWIDTH 11 0
BBX 7 5 2 8
BITMAP
58
54
74
BC
FA
ENDCHAR
STARTCHAR guillemotleft
ENCODING 171
SWIDTH 298 0
DWIDTH 10 0
BBX 7 7 1 3
BITMAP
22
66
DA
AA
CC
66
12
ENDCHAR
STARTCHAR logicalnot
ENCODING 172
SWIDTH 420 0
DWIDTH 13 0
BBX 11 7 1 1
BITMAP
FFE0
0000
FFE0
0000
00A0
00A0
00A0
ENDCHAR
STARTCHAR uni00AD
ENCODING 173
SWIDTH 326 0
DWIDTH 10 0
BBX 7 3 2 5
BITMAP
FE
00
FE
ENDCHAR
STARTCHAR registered
ENCODING 174
SWIDTH 493 0
DWIDTH 16 0
BBX 14 14 1 0
BITMAP
0FC0
1060
6010
4008
8B88
8844
8844
8B84
8884
88C8
4008
6010
1060
0F80
ENDCHAR
STARTCHAR macron
ENCODING 175
SWIDTH 331 0
DWIDTH 11 0
BBX 7 1 2 15
BITMAP
FE
ENDCHAR
STARTCHAR degree
ENCODING 176
SWIDTH 298 0
DWIDTH 10 0
BBX 6 7 2 7
BITMAP
70
88
B4
D4
B4
88
70
ENDCHAR
STARTCHAR plusminus
ENCODING 177
SWIDTH 418 0
DWIDTH 13 0
BBX 11 13 1 0
BITMAP
0A00
0A00
0A00
6AE0
0A00
6AE0
0A00
0A00
0A00
0000
FFE0
0000
FFE0
ENDCHAR
STARTCHAR uni00B2
ENCODING 178
SWIDTH 233 0
DWIDTH 7 0
BBX 4 6 2 7
BITMAP
E0
30
50
A0
F0
F0
ENDCHAR
STARTCHAR uni00B3
ENCODING 179
SWIDTH 228 0
DWIDTH 7 0
BBX 4 6 2 7
BITMAP
E0
30
20
70
D0
E0
ENDCHAR
STARTCHAR acute
ENCODING 180
SWIDTH 195 0
DWIDTH 6 0
BBX 3 3 2 15
BITMAP
60
40
80
ENDCHAR
STARTCHAR uni00B5
ENCODING 181
SWIDTH 506 0
DWIDTH 16 0
BBX 13 16 2 -3
BITMAP
A140
A140
A140
A140
A140
A140
A140
A140
A140
A240
BCB0
A140
BE78
A000
A000
A000
ENDCHAR
STARTCHAR paragraph
ENCODING 182
SWIDTH 435 0
DWIDTH 14 0
BBX 11 13 1 0
BITMAP
3FE0
4000
BFE0
A000
A2A0
BAA0
42A0
3AA0
02A0
02A0
02A0
02A0
02A0
ENDCHAR
STARTCHAR periodcentered
ENCODING 183
SWIDTH 176 0
DWIDTH 6 0
BBX 3 3 1 5
BITMAP
A0
A0
A0
ENDCHAR
STARTCHAR cedilla
ENCODING 184
SWIDTH 261 0
DWIDTH 8 0
BBX 5 6 2 -5
BITMAP
20
40
F0
08
08
F0
ENDCHAR
STARTCHAR uni00B9
ENCODING 185
SWIDTH 218 0
DWIDTH 7 0
BBX 3 6 2 7
BITMAP
E0
E0
60
60
60
60
ENDCHAR
STARTCHAR ordmasculine
ENCODING 186
SWIDTH 335 0
DWIDTH 11 0
BBX 7 7 2 7
BITMAP
38
FC
CA
C6
CA
BE
78
ENDCHAR
STARTCHAR guillemotright
ENCODING 187
SWIDTH 298 0
DWIDTH 10 0
BBX 7 7 1 3
BITMAP
88
66
AA
DE
22
4C
88
ENDCHAR
STARTCHAR onequarter
ENCODING 188
SWIDTH 429 0
DWIDTH 14 0
BBX 12 13 1 0
BITMAP
B0E0
B0C0
3140
3180
3280
3300
0600
0660
0CC0
1540
19B0
2830
31B0
ENDCHAR
STARTCHAR onehalf
ENCODING 189
SWIDTH 437 0
DWIDTH 14 0
BBX 12 13 1 0
BITMAP
B0E0
B140
3180
3280
3300
3500
0660
0AF0
0C30
1850
28A0
30F0
50F0
ENDCHAR
STARTCHAR threequarters
ENCODING 190
SWIDTH 409 0
DWIDTH 13 0
BBX 11 13 1 0
BITMAP
7080
F140
2180
3280
3300
F500
6600
0CC0
1540
1980
29E0
31E0
7060
ENDCHAR
STARTCHAR questiondown
ENCODING 191
SWIDTH 346 0
DWIDTH 11 0
BBX 7 13 2 -2
BITMAP
28
28
00
28
28
28
D8
B0
A0
AA
BA
C6
7C
ENDCHAR
STARTCHAR Agrave
ENCODING 192
SWIDTH 798 0
DWIDTH 26 0
BBX 24 34 1 0
BITMAP
024000
014000
01A000
00B000
005000
004800
002C00
000000
000000
005400
009500
00AD00
00A900
016D00
015480
015280
029A80
02AA40
04A540
052540
0544A0
0942A0
0A8290
0A8250
148150
157D48
2500A8
297EA8
2A0094
4AFF54
540052
54004A
A4002A
A8002D
ENDCHAR
STARTCHAR Aacute
ENCODING 193
SWIDTH 798 0
DWIDTH 26 0
BBX 24 34 1 0
BITMAP
000240
000280
000480
000D00
000A00
001200
003400
000000
000000
005400
009500
00AD00
00A900
016D00
015480
015280
029A80
02AA40
04A540
052540
0544A0
0942A0
0A8290
0A8250
148150
157D48
2500A8
297EA8
2A0094
4AFF54
540052
54004A
A4002A
A8002D
ENDCHAR
STARTCHAR Acircumflex
ENCODING 194
SWIDTH 798 0
DWIDTH 26 0
BBX 24 34 1 0
BITMAP
006800
005800
009600
012B00
034D00
02C480
058240
000000
000000
005400
009500
00AD00
00A900
016D00
015480
015280
029A80
02AA40
04A540
052540
0544A0
0942A0
0A8290
0A8250
148150
157D48
2500A8
297EA8
2A0094
4AFF54
540052
54004A
A4002A
A8002D
ENDCHAR
STARTCHAR Atilde
ENCODING 195
SWIDTH 798 0
DWIDTH 26 0
BBX 24 31 1 0
BITMAP
01E040
031040
020880
020700
000000
000000
005400
009500
00AD00
00A900
016D00
015480
015280
029A80
02AA40
04A540
052540
0544A0
0942A0
0A8290
0A8250
148150
157D48
2500A8
297EA8
2A0094
4AFF54
540052
54004A
A4002A
A8002D
ENDCHAR
STARTCHAR Adieresis
ENCODING 196
SWIDTH 798 0
DWIDTH 26 0
BBX 24 34 1 0
BITMAP
0383C0
044620
082420
082420
044620
0383C0
000000
000000
000000
005400
009500
00AD00
00A900
016D00
015480
015280
029A80
02AA40
04A540
052540
0544A0
0942A0
0A8290
0A8250
148150
157D48
2500A8
297EA8
2A0094
4AFF54
540052
54004A
A4002A
A8002D
ENDCHAR
STARTCHAR Aring
ENCODING 197
SWIDTH 798 0
DWIDTH 26 0
BBX 24 34 1 0
BITMAP
003C00
004600
004200
008200
004200
004600
003C00
000000
000000
005400
009500
00AD00
00A900
016D00
015480
015280
029A80
02AA40
04A540
052540
0544A0
0942A0
0A8290
0A8250
148150
157D48
2500A8
297EA8
2A0094
4AFF54
540052
54004A
A4002A
A8002D
ENDCHAR
STARTCHAR AE
ENCODING 198
SWIDTH 1078 0
DWIDTH 35 0
BBX 33 25 1 0
BITMAP
00055FFF80
0005400000
00155FFF80
0015400000
00252FFF80
002CA00000
004AA00000
0052A00000
0092A00000
00AAA00000
012AAFFE00
015AA00000
025297FE00
02A2900000
04A157FE00
0541500000
0B41500000
0ABD500000
1681500000
157D500000
290153FF80
6AFD480000
52012BFF80
D400A80000
AC00ABFF80
ENDCHAR
STARTCHAR Ccedilla
ENCODING 199
SWIDTH 776 0
DWIDTH 25 0
BBX 23 32 1 -7
BITMAP
007FC0
01BFB8
07C066
0B3F98
14C0E8
290030
7A0000
540000
540000
A80000
A80000
A80000
A80000
A80000
A80000
940000
540000
5A0000
690030
24C0E8
133F18
09C066
063F88
018070
007F80
001000
002000
003C00
004200
000200
008200
007C00
ENDCHAR
STARTCHAR Egrave
ENCODING 200
SWIDTH 677 0
DWIDTH 22 0
BBX 19 34 2 0
BITMAP
014000
012000
00A000
00D000
004800
002800
003400
000000
000000
ABFFE0
A80000
ABFFE0
A80000
ABFFE0
A80000
A80000
A80000
A80000
A80000
ABFF80
A80000
ABFF80
A80000
ABFF80
A80000
A80000
A80000
A80000
A80000
ABFFE0
A80000
ABFFE0
A80000
ABFFE0
ENDCHAR
STARTCHAR Eacute
ENCODING 201
SWIDTH 677 0
DWIDTH 22 0
BBX 19 34 2 0
BITMAP
003400
002800
004800
005000
009000
01A000
014000
000000
000000
ABFFE0
A80000
ABFFE0
A80000
ABFFE0
A80000
A80000
A80000
A80000
A80000
ABFF80
A80000
ABFF80
A80000
ABFF80
A80000
A80000
A80000
A80000
A80000
ABFFE0
A80000
ABFFE0
A80000
ABFFE0
ENDCHAR
STARTCHAR Ecircumflex
ENCODING 202
SWIDTH 677 0
DWIDTH 22 0
BBX 19 34 2 0
BITMAP
009000
01A000
014800
02D400
049200
0D0B00
1A0580
000000
000000
ABFFE0
A80000
ABFFE0
A80000
ABFFE0
A80000
A80000
A80000
A80000
A80000
ABFF80
A80000
ABFF80
A80000
ABFF80
A80000
A80000
A80000
A80000
A80000
ABFFE0
A80000
ABFFE0
A80000
ABFFE0
ENDCHAR
STARTCHAR Edieresis
ENCODING 203
SWIDTH 677 0
DWIDTH 22 0
BBX 19 34 2 0
BITMAP
0F0780
1888C0
108840
108840
1888C0
0F0700
000000
000000
000000
ABFFE0
A80000
ABFFE0
A80000
ABFFE0
A80000
A80000
A80000
A80000
A80000
ABFF80
A80000
ABFF80
A80000
ABFF80
A80000
A80000
A80000
A80000
A80000
ABFFE0
A80000
ABFFE0
A80000
ABFFE0
ENDCHAR
STARTCHAR Igrave
ENCODING 204
SWIDTH 262 0
DWIDTH 8 0
BBX 9 34 -2 0
BITMAP
9000
5000
6800
2400
1400
1200
0B00
0000
0000
0A80
0A80
0A80
0A80
0A80
0A80
0A80
0A80
0A80
0A80
0A80
0A80
0A80
0A80
0A80
0A80
0A80
0A80
0A80
0A80
0A80
0A80
0A80
0A80
0A80
ENDCHAR
STARTCHAR Iacute
ENCODING 205
SWIDTH 262 0
DWIDTH 8 0
BBX 8 34 2 0
BITMAP
09
0A
12
14
2C
48
D0
00
00
A8
A8
A8
A8
A8
A8
A8
A8
A8
A8
A8
A8
A8
A8
A8
A8
A8
A8
A8
A8
A8
A8
A8
A8
A8
ENDCHAR
STARTCHAR Icircumflex
ENCODING 206
SWIDTH 262 0
DWIDTH 8 0
BBX 14 34 -3 0
BITMAP
0580
0900
1A40
14A0
2DB0
4850
D06C
0000
0000
0540
0540
0540
0540
0540
0540
0540
0540
0540
0540
0540
0540
0540
0540
0540
0540
0540
0540
0540
0540
0540
0540
0540
0540
0540
ENDCHAR
STARTCHAR Idieresis
ENCODING 207
SWIDTH 262 0
DWIDTH 8 0
BBX 15 34 -3 0
BITMAP
7838
8C44
8482
8482
8C44
7838
0000
0000
0000
0540
0540
0540
0540
0540
0540
0540
0540
0540
0540
0540
0540
0540
0540
0540
0540
0540
0540
0540
0540
0540
0540
0540
0540
0540
ENDCHAR
STARTCHAR Eth
ENCODING 208
SWIDTH 856 0
DWIDTH 27 0
BBX 26 25 0 0
BITMAP
153F8000
15007000
153F8800
15006600
153F1B00
1500ED00
15003480
15001A80
15000B40
00000540
FFF80540
00000540
FFF80540
00000540
FFF80540
00000540
15000B40
15001A80
15003680
1500CD00
153F1B00
15006600
153F8800
15007000
153F8000
ENDCHAR
STARTCHAR Ntilde
ENCODING 209
SWIDTH 796 0
DWIDTH 25 0
BBX 22 31 2 0
BITMAP
03C080
066080
041100
040E00
000000
000000
A80054
AC0054
AA0054
AA0054
A90054
AA8054
AAC054
A94054
A92054
AA9054
AA5854
A96854
A8A454
A89654
A84A54
A82954
A83454
A81254
A80B54
A80554
A80454
A80254
A80154
A80154
A80054
ENDCHAR
STARTCHAR Ograve
ENCODING 210
SWIDTH 894 0
DWIDTH 29 0
BBX 27 34 1 0
BITMAP
00A00000
00900000
00580000
00280000
00240000
00140000
001A0000
00000000
00000000
007F8000
01BFF000
07C06C00
0B3F9E00
14C0EF00
29003780
7A001A80
54000940
54000540
A8000540
A8000540
A80004A0
A80004A0
A8000520
A8000540
94000540
54000940
5A001A40
69003680
24C0ED80
133F1B00
09C06600
063F8C00
01807000
007F8000
ENDCHAR
STARTCHAR Oacute
ENCODING 211
SWIDTH 894 0
DWIDTH 29 0
BBX 27 34 1 0
BITMAP
00016000
00034000
00028000
00048000
00050000
000B0000
001A0000
00000000
00000000
007F8000
01BFF000
07C06C00
0B3F9E00
14C0EF00
29003780
7A001A80
54000940
54000540
A8000540
A8000540
A80004A0
A80004A0
A8000520
A8000540
94000540
54000940
5A001A40
69003680
24C0ED80
133F1B00
09C06600
063F8C00
01807000
007F8000
ENDCHAR
STARTCHAR Ocircumflex
ENCODING 212
SWIDTH 894 0
DWIDTH 29 0
BBX 27 34 1 0
BITMAP
00120000
00240000
00690000
005A8000
00924000
01216000
0341B000
00000000
00000000
007F8000
01BFF000
07C06C00
0B3F9E00
14C0EF00
29003780
7A001A80
54000940
54000540
A8000540
A8000540
A80004A0
A80004A0
A8000520
A8000540
94000540
54000940
5A001A40
69003680
24C0ED80
133F1B00
09C06600
063F8C00
01807000
007F8000
ENDCHAR
STARTCHAR Otilde
ENCODING 213
SWIDTH 894 0
DWIDTH 29 0
BBX 27 31 1 0
BITMAP
00702000
00882000
01062000
0103C000
00000000
00000000
007F8000
01BFF000
07C06C00
0B3F9E00
14C0EF00
29003780
7A001A80
54000940
54000540
A8000540
A8000540
A80004A0
A80004A0
A8000520
A8000540
94000540
54000940
5A001A40
69003680
24C0ED80
133F1B00
09C06600
063F8C00
01807000
007F8000
ENDCHAR
STARTCHAR Odieresis
ENCODING 214
SWIDTH 894 0
DWIDTH 29 0
BBX 27 34 1 0
BITMAP
01E0E000
03311000
02110800
02110800
03311000
01E0E000
00000000
00000000
00000000
007F8000
01BFF000
07C06C00
0B3F9E00
14C0EF00
29003780
7A001A80
54000940
54000540
A8000540
A8000540
A80004A0
A80004A0
A8000520
A8000540
94000540
54000940
5A001A40
69003680
24C0ED80
133F1B00
09C06600
063F8C00
01807000
007F8000
ENDCHAR
STARTCHAR multiply
ENCODING 215
SWIDTH 370 0
DWIDTH 12 0
BBX 10 9 1 2
BITMAP
2100
3200
C480
6900
1200
2400
4980
D2C0
2300
ENDCHAR
STARTCHAR Oslash
ENCODING 216
SWIDTH 894 0
DWIDTH 29 0
BBX 27 26 1 -1
BITMAP
007FEE00
01BF8A80
07C01580
0B3F3D00
14C02A00
29005480
7A00A5C0
5400A940
54015540
A802B540
A827A520
A84544A0
A8CA84A0
A89E8520
A9140540
9B280540
52500940
54501AC0
28A03680
1940ED00
13FF1B00
22C06600
253F8800
0F807000
1A7F8000
04000000
ENDCHAR
STARTCHAR Ugrave
ENCODING 217
SWIDTH 702 0
DWIDTH 22 0
BBX 19 34 2 0
BITMAP
120000
0A0000
0D0000
048000
028000
024000
016000
000000
000000
A802A0
A802A0
A802A0
A802A0
A802A0
A802A0
A802A0
A802A0
A802A0
A802A0
A802A0
A802A0
A802A0
A802A0
A802A0
A802A0
A802A0
A804A0
AC0540
960940
59F2C0
6C0C80
33F100
0C0600
03F800
ENDCHAR
STARTCHAR Uacute
ENCODING 218
SWIDTH 702 0
DWIDTH 22 0
BBX 19 34 2 0
BITMAP
001A00
001400
002400
002800
004800
00D000
00A000
000000
000000
A802A0
A802A0
A802A0
A802A0
A802A0
A802A0
A802A0
A802A0
A802A0
A802A0
A802A0
A802A0
A802A0
A802A0
A802A0
A802A0
A802A0
A804A0
AC0540
960940
59F2C0
6C0C80
33F100
0C0600
03F800
ENDCHAR
STARTCHAR Ucircumflex
ENCODING 219
SWIDTH 702 0
DWIDTH 22 0
BBX 19 34 2 0
BITMAP
012000
024000
069000
05A800
092C00
121400
341B00
000000
000000
A802A0
A802A0
A802A0
A802A0
A802A0
A802A0
A802A0
A802A0
A802A0
A802A0
A802A0
A802A0
A802A0
A802A0
A802A0
A802A0
A802A0
A804A0
AC0540
960940
59F2C0
6C0C80
33F100
0C0600
03F800
ENDCHAR
STARTCHAR Udieresis
ENCODING 220
SWIDTH 702 0
DWIDTH 22 0
BBX 19 34 2 0
BITMAP
1E0E00
231100
213080
212080
231100
1E0E00
000000
000000
000000
A802A0
A802A0
A802A0
A802A0
A802A0
A802A0
A802A0
A802A0
A802A0
A802A0
A802A0
A802A0
A802A0
A802A0
A802A0
A802A0
A802A0
A804A0
AC0540
960940
59F2C0
6C0C80
33F100
0C0600
03F800
ENDCHAR
STARTCHAR Yacute
ENCODING 221
SWIDTH 769 0
DWIDTH 25 0
BBX 24 34 0 0
BITMAP
000240
000280
000480
000D00
000A00
001200
003400
000000
000000
D6002D
4B004A
2500D6
1480A4
1AC128
094358
052290
06B4A0
025160
014A40
01AC80
009480
005A00
000000
002A00
002A00
002A00
002A00
002A00
002A00
002A00
002A00
002A00
002A00
002A00
ENDCHAR
STARTCHAR Thorn
ENCODING 222
SWIDTH 743 0
DWIDTH 24 0
BBX 21 25 2 0
BITMAP
A80000
A80000
A80000
A80000
ABFF00
A800C0
A80020
ABFF10
A80090
ABFE48
A80128
A800A8
A800A8
A80128
ABFE50
A80090
ABFF20
A800C0
ABFF00
A80000
A80000
A80000
A80000
A80000
A80000
ENDCHAR
STARTCHAR germandbls
ENCODING 223
SWIDTH 424 0
DWIDTH 14 0
BBX 12 13 1 0
BITMAP
3F80
4040
DF20
A0A0
A0A0
A7E0
A060
A7A0
A090
A090
A7A0
A060
A7C0
ENDCHAR
STARTCHAR agrave
ENCODING 224
SWIDTH 414 0
DWIDTH 13 0
BBX 13 18 0 0
BITMAP
0C00
0400
0200
0000
0000
0500
0980
0A80
0A40
1340
1540
1520
28A0
2FA0
2890
5850
5FD0
D068
ENDCHAR
STARTCHAR aacute
ENCODING 225
SWIDTH 414 0
DWIDTH 13 0
BBX 13 18 0 0
BITMAP
00C0
0080
0100
0000
0000
0500
0980
0A80
0A40
1340
1540
1520
28A0
2FA0
2890
5850
5FD0
D068
ENDCHAR
STARTCHAR acircumflex
ENCODING 226
SWIDTH 414 0
DWIDTH 13 0
BBX 13 18 0 0
BITMAP
0600
0500
18C0
0000
0000
0500
0980
0A80
0A40
1340
1540
1520
28A0
2FA0
2890
5850
5FD0
D068
ENDCHAR
STARTCHAR atilde
ENCODING 227
SWIDTH 414 0
DWIDTH 13 0
BBX 13 17 0 0
BITMAP
0E40
11C0
0000
0000
0500
0980
0A80
0A40
1340
1540
1520
28A0
2FA0
2890
5850
5FD0
D068
ENDCHAR
STARTCHAR adieresis
ENCODING 228
SWIDTH 414 0
DWIDTH 13 0
BBX 13 17 0 0
BITMAP
0CC0
0CC0
0000
0000
0500
0980
0A80
0A40
1340
1540
1520
28A0
2FA0
2890
5850
5FD0
D068
ENDCHAR
STARTCHAR aring
ENCODING 229
SWIDTH 414 0
DWIDTH 13 0
BBX 13 19 0 0
BITMAP
0300
0480
0480
0300
0000
0000
0500
0980
0A80
0A40
1340
1540
1520
28A0
2FA0
2890
5850
5FD0
D068
ENDCHAR
STARTCHAR ae
ENCODING 230
SWIDTH 593 0
DWIDTH 19 0
BBX 18 13 0 0
BITMAP
017FC0
036000
02BFC0
04A000
05A000
09BF80
0AA000
129F80
145000
245000
2FDFC0
485000
D05FC0
ENDCHAR
STARTCHAR ccedilla
ENCODING 231
SWIDTH 446 0
DWIDTH 14 0
BBX 12 18 1 -5
BITMAP
0FC0
3020
6790
5860
9000
A000
A000
A000
9000
5860
6790
3020
0FC0
0400
0F00
0080
0080
0F00
ENDCHAR
STARTCHAR egrave
ENCODING 232
SWIDTH 363 0
DWIDTH 12 0
BBX 10 18 1 0
BITMAP
1800
0800
0400
0000
0000
BFC0
A000
BFC0
A000
A000
BF80
A000
BF80
A000
A000
BFC0
A000
BFC0
ENDCHAR
STARTCHAR eacute
ENCODING 233
SWIDTH 363 0
DWIDTH 12 0
BBX 10 18 1 0
BITMAP
0100
0300
0600
0000
0000
BFC0
A000
BFC0
A000
A000
BF80
A000
BF80
A000
A000
BFC0
A000
BFC0
ENDCHAR
STARTCHAR ecircumflex
ENCODING 234
SWIDTH 363 0
DWIDTH 12 0
BBX 10 18 1 0
BITMAP
0C00
1A00
3180
0000
0000
BFC0
A000
BFC0
A000
A000
BF80
A000
BF80
A000
A000
BFC0
A000
BFC0
ENDCHAR
STARTCHAR edieresis
ENCODING 235
SWIDTH 363 0
DWIDTH 12 0
BBX 10 17 1 0
BITMAP
1B80
1900
0000
0000
BFC0
A000
BFC0
A000
A000
BF80
A000
BF80
A000
A000
BFC0
A000
BFC0
ENDCHAR
STARTCHAR igrave
ENCODING 236
SWIDTH 176 0
DWIDTH 6 0
BBX 4 18 0 0
BITMAP
C0
40
20
00
00
50
50
50
50
50
50
50
50
50
50
50
50
50
ENDCHAR
STARTCHAR iacute
ENCODING 237
SWIDTH 176 0
DWIDTH 6 0
BBX 5 18 1 0
BITMAP
18
10
20
00
00
A0
A0
A0
A0
A0
A0
A0
A0
A0
A0
A0
A0
A0
ENDCHAR
STARTCHAR icircumflex
ENCODING 238
SWIDTH 176 0
DWIDTH 6 0
BBX 7 18 -1 0
BITMAP
10
28
C6
00
00
28
28
28
28
28
28
28
28
28
28
28
28
28
ENDCHAR
STARTCHAR idieresis
ENCODING 239
SWIDTH 176 0
DWIDTH 6 0
BBX 6 17 0 0
BITMAP
CC
CC
00
00
50
50
50
50
50
50
50
50
50
50
50
50
50
ENDCHAR
STARTCHAR eth
ENCODING 240
SWIDTH 455 0
DWIDTH 15 0
BBX 14 13 0 0
BITMAP
4FC0
4860
4F90
4848
4828
0024
FC14
0024
4828
4848
4F90
4860
4FC0
ENDCHAR
STARTCHAR ntilde
ENCODING 241
SWIDTH 444 0
DWIDTH 14 0
BBX 12 17 1 0
BITMAP
1C40
2380
0000
0000
B050
B050
A850
A450
B650
BA50
A950
A5D0
A2D0
A350
A150
A0D0
A0D0
ENDCHAR
STARTCHAR ograve
ENCODING 242
SWIDTH 494 0
DWIDTH 16 0
BBX 14 18 1 0
BITMAP
0C00
0600
0200
0000
0000
0FC0
3020
6790
5868
902C
A014
A014
A014
902C
5868
6790
3020
0FC0
ENDCHAR
STARTCHAR oacute
ENCODING 243
SWIDTH 494 0
DWIDTH 16 0
BBX 14 18 1 0
BITMAP
0080
0100
0300
0000
0000
0FC0
3020
6790
5868
902C
A014
A014
A014
902C
5868
6790
3020
0FC0
ENDCHAR
STARTCHAR ocircumflex
ENCODING 244
SWIDTH 494 0
DWIDTH 16 0
BBX 14 18 1 0
BITMAP
0200
0580
18C0
0000
0000
0FC0
3020
6790
5868
902C
A014
A014
A014
902C
5868
6790
3020
0FC0
ENDCHAR
STARTCHAR otilde
ENCODING 245
SWIDTH 494 0
DWIDTH 16 0
BBX 14 17 1 0
BITMAP
0E60
11C0
0000
0000
0FC0
3020
6790
5868
902C
A014
A014
A014
902C
5868
6790
3020
0FC0
ENDCHAR
STARTCHAR odieresis
ENCODING 246
SWIDTH 494 0
DWIDTH 16 0
BBX 14 17 1 0
BITMAP
0CC0
0CC0
0000
0000
0FC0
3020
6790
5868
902C
A014
A014
A014
902C
5868
6790
3020
0FC0
ENDCHAR
STARTCHAR divide
ENCODING 247
SWIDTH 418 0
DWIDTH 13 0
BBX 11 11 1 1
BITMAP
0600
0A00
0600
0000
FFE0
0000
FFE0
0000
0600
0A00
0600
ENDCHAR
STARTCHAR oslash
ENCODING 248
SWIDTH 494 0
DWIDTH 16 0
BBX 14 13 1 0
BITMAP
0FC8
3010
6720
5848
9098
A134
A314
A614
AC2C
5868
1790
2020
4FC0
ENDCHAR
STARTCHAR ugrave
ENCODING 249
SWIDTH 400 0
DWIDTH 13 0
BBX 11 18 1 0
BITMAP
1000
0800
0400
0000
0000
A120
A120
A120
A120
A120
A120
A120
A120
A140
9140
4E40
2080
1F00
ENDCHAR
STARTCHAR uacute
ENCODING 250
SWIDTH 400 0
DWIDTH 13 0
BBX 11 18 1 0
BITMAP
0300
0200
0400
0000
0000
A120
A120
A120
A120
A120
A120
A120
A120
A140
9140
4E40
2080
1F00
ENDCHAR
STARTCHAR ucircumflex
ENCODING 251
SWIDTH 400 0
DWIDTH 13 0
BBX 11 18 1 0
BITMAP
0C00
1200
3100
0000
0000
A120
A120
A120
A120
A120
A120
A120
A120
A140
9140
4E40
2080
1F00
ENDCHAR
STARTCHAR udieresis
ENCODING 252
SWIDTH 400 0
DWIDTH 13 0
BBX 11 17 1 0
BITMAP
3B00
1300
0000
0000
A120
A120
A120
A120
A120
A120
A120
A120
A140
9140
4E40
2080
1F00
ENDCHAR
STARTCHAR yacute
ENCODING 253
SWIDTH 422 0
DWIDTH 14 0
BBX 13 18 0 0
BITMAP
0080
0100
0300
0000
0000
D068
48D0
2CB0
1520
1340
0BC0
0D80
0000
0500
0500
0500
0500
0500
ENDCHAR
STARTCHAR thorn
ENCODING 254
SWIDTH 412 0
DWIDTH 13 0
BBX 11 13 1 0
BITMAP
A000
A000
A000
BF80
A060
BFA0
A0A0
BFA0
A060
BF80
A000
A000
A000
ENDCHAR
STARTCHAR ydieresis
ENCODING 255
SWIDTH 422 0
DWIDTH 14 0
BBX 13 17 0 0
BITMAP
0CC0
0CC0
0000
0000
D068
48D0
2CB0
1520
1340
0BC0
0D80
0000
0500
0500
0500
0500
0500
ENDCHAR
STARTCHAR Edotaccent
ENCODING 278
SWIDTH 677 0
DWIDTH 22 0
BBX 19 31 2 0
BITMAP
002000
007000
007000
000000
000000
000000
ABFFE0
A80000
ABFFE0
A80000
ABFFE0
A80000
A80000
A80000
A80000
A80000
ABFF80
A80000
ABFF80
A80000
ABFF80
A80000
A80000
A80000
A80000
A80000
ABFFE0
A80000
ABFFE0
A80000
ABFFE0
ENDCHAR
STARTCHAR edotaccent
ENCODING 279
SWIDTH 363 0
DWIDTH 12 0
BBX 10 18 1 0
BITMAP
0600
0E00
0600
0000
0000
BFC0
A000
BFC0
A000
A000
BF80
A000
BF80
A000
A000
BFC0
A000
BFC0
ENDCHAR
STARTCHAR dotlessi
ENCODING 305
SWIDTH 176 0
DWIDTH 6 0
BBX 3 13 1 0
BITMAP
A0
A0
A0
A0
A0
A0
A0
A0
A0
A0
A0
A0
A0
ENDCHAR
STARTCHAR OE
ENCODING 338
SWIDTH 1221 0
DWIDTH 39 0
BBX 37 25 1 0
BITMAP
007FAAFFF8
01802A0000
063FAAFFF8
09C02A0000
123FAAFFF8
24C02A0000
69002A0000
52002A0000
54002A0000
A4002A0000
A8002AFFE0
A8002A0000
A8002AFFE0
A8002A0000
A8002AFFE0
B4002A0000
54002A0000
52002A0000
69002A0000
24C02A0000
123FAAFFF8
09C02A0000
063FAAFFF8
01802A0000
007FAAFFF8
ENDCHAR
STARTCHAR oe
ENCODING 339
SWIDTH 637 0
DWIDTH 20 0
BBX 19 13 1 0
BITMAP
0FFFE0
305000
67AFE0
585000
B05000
A05FC0
A05000
A05FC0
B05000
585000
6FAFE0
305000
0FFFE0
ENDCHAR
STARTCHAR Wcircumflex
ENCODING 372
SWIDTH 972 0
DWIDTH 31 0
BBX 29 34 1 0
BITMAP
00090000
001A0000
0016C000
00254000
00492000
00D09000
01B05800
00000000
00000000
A80D40A8
A80A40A8
A40A8128
540A8148
54128150
5414C150
52154250
2A152290
2A2522A0
2A29A2A0
252AA4A0
152A9520
154A5540
15535540
12D55540
0A954A40
0A95AA80
0A64AA80
0968AA80
0548A480
05485500
05285500
04A85500
02A04A00
02A02A00
ENDCHAR
STARTCHAR wcircumflex
ENCODING 373
SWIDTH 521 0
DWIDTH 17 0
BBX 16 18 0 0
BITMAP
0180
0240
0620
0000
0000
B145
5145
5245
52CA
4AAA
2AAA
2CBA
2D94
1554
1554
1554
1648
0A28
ENDCHAR
STARTCHAR Ycircumflex
ENCODING 374
SWIDTH 769 0
DWIDTH 25 0
BBX 24 34 0 0
BITMAP
002400
004800
00D200
00B500
012480
0242C0
068360
000000
000000
D6002D
4B004A
2500D6
1480A4
1AC128
094358
052290
06B4A0
025160
014A40
01AC80
009480
005A00
000000
002A00
002A00
002A00
002A00
002A00
002A00
002A00
002A00
002A00
002A00
002A00
ENDCHAR
STARTCHAR ycircumflex
ENCODING 375
SWIDTH 422 0
DWIDTH 14 0
BBX 13 18 0 0
BITMAP
0600
0500
18C0
0000
0000
D068
48D0
2CB0
1520
1340
0BC0
0D80
0000
0500
0500
0500
0500
0500
ENDCHAR
STARTCHAR Ydieresis
ENCODING 376
SWIDTH 769 0
DWIDTH 25 0
BBX 24 34 0 0
BITMAP
03C1C0
062220
042210
042210
066220
03C1C0
000000
000000
000000
D6002D
4B004A
2500D6
1480A4
1AC128
094358
052290
06B4A0
025160
014A40
01AC80
009480
005A00
000000
002A00
002A00
002A00
002A00
002A00
002A00
002A00
002A00
002A00
002A00
002A00
ENDCHAR
STARTCHAR circumflex
ENCODING 710
SWIDTH 298 0
DWIDTH 10 0
BBX 6 3 2 15
BITMAP
20
58
8C
ENDCHAR
STARTCHAR dotaccent
ENCODING 729
SWIDTH 212 0
DWIDTH 7 0
BBX 3 3 2 15
BITMAP
C0
E0
C0
ENDCHAR
STARTCHAR ring
ENCODING 730
SWIDTH 212 0
DWIDTH 7 0
BBX 3 4 2 15
BITMAP
E0
A0
A0
E0
ENDCHAR
STARTCHAR tilde
ENCODING 732
SWIDTH 329 0
DWIDTH 11 0
BBX 7 2 2 15
BITMAP
E2
9C
ENDCHAR
STARTCHAR gravecomb
ENCODING 768
SWIDTH 0 0
DWIDTH 0 0
BBX 3 3 2 15
BITMAP
80
40
60
ENDCHAR
STARTCHAR acutecomb
ENCODING 769
SWIDTH 0 0
DWIDTH 0 0
BBX 3 3 2 15
BITMAP
60
40
80
ENDCHAR
STARTCHAR uni0302
ENCODING 770
SWIDTH 0 0
DWIDTH 0 0
BBX 6 3 2 15
BITMAP
20
58
8C
ENDCHAR
STARTCHAR tildecomb
ENCODING 771
SWIDTH 0 0
DWIDTH 0 0
BBX 7 2 2 15
BITMAP
E2
9C
ENDCHAR
STARTCHAR uni0307
ENCODING 775
SWIDTH 0 0
DWIDTH 0 0
BBX 3 3 2 15
BITMAP
C0
E0
C0
ENDCHAR
STARTCHAR uni0308
ENCODING 776
SWIDTH 0 0
DWIDTH 0 0
BBX 6 2 2 15
BITMAP
DC
C8
ENDCHAR
STARTCHAR uni030A
ENCODING 778
SWIDTH 0 0
DWIDTH 0 0
BBX 3 4 2 15
BITMAP
E0
A0
A0
E0
ENDCHAR
STARTCHAR uni0327
ENCODING 807
SWIDTH 0 0
DWIDTH 0 0
BBX 5 6 2 -5
BITMAP
20
40
F0
08
08
F0
ENDCHAR
STARTCHAR Wgrave
ENCODING 7808
SWIDTH 972 0
DWIDTH 31 0
BBX 29 34 1 0
BITMAP
00140000
001A0000
000B0000
00050000
00048000
00028000
00034000
00000000
00000000
A80D40A8
A80A40A8
A40A8128
540A8148
54128150
5414C150
52154250
2A152290
2A2522A0
2A29A2A0
252AA4A0
152A9520
154A5540
15535540
12D55540
0A954A40
0A95AA80
0A64AA80
0968AA80
0548A480
05485500
05285500
04A85500
02A04A00
02A02A00
ENDCHAR
STARTCHAR wgrave
ENCODING 7809
SWIDTH 521 0
DWIDTH 17 0
BBX 16 18 0 0
BITMAP
0100
0080
00C0
0000
0000
B145
5145
5245
52CA
4AAA
2AAA
2CBA
2D94
1554
1554
1554
1648
0A28
ENDCHAR
STARTCHAR Wacute
ENCODING 7810
SWIDTH 972 0
DWIDTH 31 0
BBX 29 34 1 0
BITMAP
00014000
0002C000
00048000
00050000
00090000
000A0000
00160000
00000000
00000000
A80D40A8
A80A40A8
A40A8128
540A8148
54128150
5414C150
52154250
2A152290
2A2522A0
2A29A2A0
252AA4A0
152A9520
154A5540
15535540
12D55540
0A954A40
0A95AA80
0A64AA80
0968AA80
0548A480
05485500
05285500
04A85500
02A04A00
02A02A00
ENDCHAR
STARTCHAR wacute
ENCODING 7811
SWIDTH 521 0
DWIDTH 17 0
BBX 16 18 0 0
BITMAP
00C0
0080
0100
0000
0000
B145
5145
5245
52CA
4AAA
2AAA
2CBA
2D94
1554
1554
1554
1648
0A28
ENDCHAR
STARTCHAR Wdieresis
ENCODING 7812
SWIDTH 972 0
DWIDTH 31 0
BBX 29 34 1 0
BITMAP
00F07800
01888C00
01088400
01088400
01888C00
00F07800
00000000
00000000
00000000
A80D40A8
A80A40A8
A40A8128
540A8148
54128150
5414C150
52154250
2A152290
2A2522A0
2A29A2A0
252AA4A0
152A9520
154A5540
15535540
12D55540
0A954A40
0A95AA80
0A64AA80
0968AA80
0548A480
05485500
05285500
04A85500
02A04A00
02A02A00
ENDCHAR
STARTCHAR wdieresis
ENCODING 7813
SWIDTH 521 0
DWIDTH 17 0
BBX 16 17 0 0
BITMAP
0760
0260
0000
0000
B145
5145
5245
52CA
4AAA
2AAA
2CBA
2D94
1554
1554
1554
1648
0A28
ENDCHAR
STARTCHAR uni1E9E
ENCODING 7838
SWIDTH 784 0
DWIDTH 25 0
BBX 22 25 2 0
BITMAP
ABFFE0
A80000
ABFFE0
A80000
ABFFE0
A80000
A805A0
A80B40
A81AC0
A81680
A82500
A82960
A84A90
A85648
A8B528
A80094
A80054
A80054
A80054
A800B4
A8FF28
A80048
A8FF90
A80060
A8FF80
ENDCHAR
STARTCHAR Ygrave
ENCODING 7922
SWIDTH 769 0
DWIDTH 25 0
BBX 24 34 0 0
BITMAP
005000
004800
002800
002400
001600
000A00
000D00
000000
000000
D6002D
4B004A
2500D6
1480A4
1AC128
094358
052290
06B4A0
025160
014A40
01AC80
009480
005A00
000000
002A00
002A00
002A00
002A00
002A00
002A00
002A00
002A00
002A00
002A00
002A00
ENDCHAR
STARTCHAR ygrave
ENCODING 7923
SWIDTH 422 0
DWIDTH 14 0
BBX 13 18 0 0
BITMAP
0600
0200
0100
0000
0000
D068
48D0
2CB0
1520
1340
0BC0
0D80
0000
0500
0500
0500
0500
0500
ENDCHAR
STARTCHAR endash
ENCODING 8211
SWIDTH 507 0
DWIDTH 16 0
BBX 13 3 2 5
BITMAP
FFF8
0000
FFF8
ENDCHAR
STARTCHAR emdash
ENCODING 8212
SWIDTH 552 0
DWIDTH 18 0
BBX 14 3 2 5
BITMAP
FFFC
0000
FFFC
ENDCHAR
STARTCHAR quoteleft
ENCODING 8216
SWIDTH 146 0
DWIDTH 5 0
BBX 3 4 1 9
BITMAP
80
80
A0
A0
ENDCHAR
STARTCHAR quoteright
ENCODING 8217
SWIDTH 146 0
DWIDTH 5 0
BBX 3 4 1 9
BITMAP
A0
A0
20
20
ENDCHAR
STARTCHAR quotesinglbase
ENCODING 8218
SWIDTH 146 0
DWIDTH 5 0
BBX 3 4 1 -4
BITMAP
A0
A0
20
20
ENDCHAR
STARTCHAR quotedblleft
ENCODING 8220
SWIDTH 297 0
DWIDTH 10 0
BBX 8 4 1 9
BITMAP
84
84
A5
A5
ENDCHAR
STARTCHAR quotedblright
ENCODING 8221
SWIDTH 297 0
DWIDTH 10 0
BBX 8 4 1 9
BITMAP
A5
A5
21
21
ENDCHAR
STARTCHAR quotedblbase
ENCODING 8222
SWIDTH 297 0
DWIDTH 10 0
BBX 8 4 1 -4
BITMAP
A5
A5
21
21
ENDCHAR
STARTCHAR bullet
ENCODING 8226
SWIDTH 302 0
DWIDTH 10 0
BBX 6 6 2 3
BITMAP
78
8C
84
84
8C
78
ENDCHAR
STARTCHAR ellipsis
ENCODING 8230
SWIDTH 528 0
DWIDTH 17 0
BBX 15 3 1 0
BITMAP
A28A
A28A
A28A
ENDCHAR
STARTCHAR guilsinglleft
ENCODING 8249
SWIDTH 178 0
DWIDTH 6 0
BBX 3 7 1 3
BITMAP
20
60
E0
A0
C0
60
20
ENDCHAR
STARTCHAR guilsinglright
ENCODING 8250
SWIDTH 178 0
DWIDTH 6 0
BBX 3 7 1 3
BITMAP
80
60
A0
E0
20
40
80
ENDCHAR
STARTCHAR fraction
ENCODING 8260
SWIDTH 362 0
DWIDTH 12 0
BBX 11 13 0 0
BITMAP
01A0
0140
0240
0280
0480
0500
0B00
1A00
1400
2400
2800
4800
D000
ENDCHAR
STARTCHAR uni2074
ENCODING 8308
SWIDTH 204 0
DWIDTH 7 0
BBX 5 6 1 7
BITMAP
50
60
A0
D8
18
D8
ENDCHAR
STARTCHAR Euro
ENCODING 8364
SWIDTH 462 0
DWIDTH 15 0
BBX 14 13 0 0
BITMAP
03E0
0C18
13E4
2C30
0000
FE00
0000
FE00
0000
2C30
13E4
0C18
03E0
ENDCHAR
STARTCHAR trademark
ENCODING 8482
SWIDTH 461 0
DWIDTH 15 0
BBX 13 6 0 7
BITMAP
FD98
0198
2168
2128
2108
2108
ENDCHAR
STARTCHAR minus
ENCODING 8722
SWIDTH 420 0
DWIDTH 13 0
BBX 11 3 1 5
BITMAP
FFE0
0000
FFE0
ENDCHAR
STARTCHAR uni2215
ENCODING 8725
SWIDTH 278 0
DWIDTH 9 0
BBX 8 13 1 0
BITMAP
0B
0A
1A
14
14
34
28
28
68
50
50
90
A0
ENDCHAR
STARTCHAR .notdef
ENCODING -1
SWIDTH 500 0
DWIDTH 16 0
BBX 12 36 2 -7
BITMAP
FFF0
FFF0
8010
8010
8010
8010
8010
8010
8010
8010
8010
8010
8010
8010
8010
8010
8010
8010
8010
8010
8010
8010
8010
8010
8010
8010
8010
8010
8010
8010
8010
8010
8010
8010
FFF0
FFF0
ENDCHAR
STARTCHAR NULL
ENCODING -1
SWIDTH 600 0
DWIDTH 19 0
BBX 1 1 0 0
BITMAP
00
ENDCHAR
STARTCHAR acutecomb.case
ENCODING -1
SWIDTH 0 0
DWIDTH 0 0
BBX 7 7 2 27
BITMAP
1A
14
24
28
48
D0
A0
ENDCHAR
STARTCHAR ampersand.case
ENCODING -1
SWIDTH 797 0
DWIDTH 26 0
BBX 23 25 1 0
BITMAP
00FC00
03FE00
058500
0A7280
0A8AC0
0A8540
128940
0A8A40
0A5680
096D80
05A600
1C9400
324800
6D2C30
59B468
96925A
AC4934
A825AC
A81698
A41A50
53E920
4C14B0
23E2D0
180F48
07F1B4
ENDCHAR
STARTCHAR asciicircum.case
ENCODING -1
SWIDTH 540 0
DWIDTH 17 0
BBX 16 14 1 12
BITMAP
0100
0100
0300
0280
0480
0520
0920
1A90
1450
2468
282C
4814
5012
B00B
ENDCHAR
STARTCHAR asciitilde.case
ENCODING -1
SWIDTH 640 0
DWIDTH 20 0
BBX 17 7 2 10
BITMAP
7E0080
81C180
7E7E00
81C180
7E7E00
81C180
807E00
ENDCHAR
STARTCHAR asterisk.case
ENCODING -1
SWIDTH 482 0
DWIDTH 15 0
BBX 12 11 2 14
BITMAP
0A00
0A00
8A20
70C0
8010
E0E0
0000
3080
2A40
5940
1180
ENDCHAR
STARTCHAR at.case
ENCODING -1
SWIDTH 915 0
DWIDTH 29 0
BBX 27 25 1 0
BITMAP
003FC000
01FFF800
02C03400
0F000B00
1E000780
141F9280
28609140
78DF9140
50B090A0
516090A0
514090A0
514090A0
D14090A0
514090A0
516090A0
50B09160
48CF4E40
6860E080
241F1F00
16000000
19000000
0CC07000
023F8800
01C03000
003FC000
ENDCHAR
STARTCHAR backslash.case
ENCODING -1
SWIDTH 504 0
DWIDTH 16 0
BBX 16 29 0 -2
BITMAP
D400
5400
5200
2A00
2A00
2900
1500
1500
1480
0A80
0A80
0940
0540
0540
04A0
02A0
02B0
0250
0150
0158
0128
00A8
00A4
0094
0054
0052
004A
002A
002D
ENDCHAR
STARTCHAR bar.case
ENCODING -1
SWIDTH 262 0
DWIDTH 8 0
BBX 5 29 2 -2
BITMAP
A8
A8
A8
A8
A8
A8
A8
A8
A8
A8
A8
A8
A8
A8
A8
A8
A8
A8
A8
A8
A8
A8
A8
A8
A8
A8
A8
A8
A8
ENDCHAR
STARTCHAR braceleft.case
ENCODING -1
SWIDTH 504 0
DWIDTH 16 0
BBX 13 29 2 -2
BITMAP
12B8
1280
12B8
1280
12B8
1280
1280
1280
1280
1280
1280
1280
D280
1280
D280
1280
D280
1280
1280
1280
1280
1280
1280
1280
12B8
1280
12B8
1280
12B8
ENDCHAR
STARTCHAR braceright.case
ENCODING -1
SWIDTH 506 0
DWIDTH 16 0
BBX 13 29 2 -1
BITMAP
CA80
0A80
CA80
0A80
CA80
0A80
0A80
0A80
0A80
0A80
0A80
0A80
0AB8
0A80
0AB8
0A80
0AB8
0A80
0A80
0A80
0A80
0A80
0A80
0A80
CA80
0A80
CA80
0A80
CA80
ENDCHAR
STARTCHAR bracketleft.case
ENCODING -1
SWIDTH 453 0
DWIDTH 15 0
BBX 11 29 2 -2
BITMAP
ABE0
A800
ABE0
A800
ABE0
A800
A800
A800
A800
A800
A800
A800
A800
A800
A800
A800
A800
A800
A800
A800
A800
A800
A800
A800
ABE0
A800
ABE0
A800
ABE0
ENDCHAR
STARTCHAR bracketright.case
ENCODING -1
SWIDTH 453 0
DWIDTH 15 0
BBX 11 29 2 -1
BITMAP
FAA0
02A0
FAA0
02A0
FAA0
02A0
02A0
02A0
02A0
02A0
02A0
02A0
02A0
02A0
02A0
02A0
02A0
02A0
02A0
02A0
02A0
02A0
02A0
02A0
FAA0
02A0
FAA0
02A0
FAA0
ENDCHAR
STARTCHAR brokenbar.case
ENCODING -1
SWIDTH 262 0
DWIDTH 8 0
BBX 5 29 2 0
BITMAP
A8
A8
A8
A8
A8
A8
A8
A8
A8
A8
A8
A8
A8
00
00
00
A8
A8
A8
A8
A8
A8
A8
A8
A8
A8
A8
A8
A8
ENDCHAR
STARTCHAR bullet.case
ENCODING -1
SWIDTH 503 0
DWIDTH 16 0
BBX 13 13 2 6
BITMAP
0F80
30C0
4F20
9090
A050
A050
A048
A050
A050
9090
4F20
30C0
0F80
ENDCHAR
STARTCHAR uni0327.case
ENCODING -1
SWIDTH 0 0
DWIDTH 0 0
BBX 7 8 2 -7
BITMAP
10
20
20
7C
C6
02
86
78
ENDCHAR
STARTCHAR cent.case
ENCODING -1
SWIDTH 577 0
DWIDTH 18 0
BBX 15 29 2 -2
BITMAP
0140
0140
0140
0140
0140
03F0
0C0C
33F2
6C18
59E4
9610
A800
A800
A800
A800
A800
A800
9610
59E4
6C18
33F2
0C0C
03F0
0000
0140
0140
0140
0140
0140
ENDCHAR
STARTCHAR uni0302.case
ENCODING -1
SWIDTH 0 0
DWIDTH 0 0
BBX 13 7 2 27
BITMAP
0D00
0B00
12C0
2560
69A0
5890
B048
ENDCHAR
STARTCHAR colon.case
ENCODING -1
SWIDTH 262 0
DWIDTH 8 0
BBX 5 17 2 0
BITMAP
A8
A8
A8
A8
A8
00
00
00
00
00
00
00
A8
A8
A8
A8
A8
ENDCHAR
STARTCHAR comma.case
ENCODING -1
SWIDTH 338 0
DWIDTH 11 0
BBX 7 8 2 -3
BITMAP
2A
4A
52
54
54
B4
A8
A8
ENDCHAR
STARTCHAR copyright.case
ENCODING -1
SWIDTH 895 0
DWIDTH 29 0
BBX 27 25 1 0
BITMAP
007F8000
01FFF000
06C06800
0B001E00
14000F00
281F0500
7860C280
50DF2140
51B08140
A1400140
A1400160
A14000A0
A14000A0
A1400120
A1B08160
90CF2140
5060C140
581F0240
68000480
24000D00
13001B00
09C06600
063F8C00
01807000
007F8000
ENDCHAR
STARTCHAR currency.case
ENCODING -1
SWIDTH 676 0
DWIDTH 22 0
BBX 20 19 1 1
BITMAP
180100
2C0340
360480
DA0520
69F240
330C80
04F600
051A00
0A0A00
0A0A00
0A0A00
051A00
24F680
330C40
49F320
9604B0
640240
080100
100180
ENDCHAR
STARTCHAR degree.case
ENCODING -1
SWIDTH 413 0
DWIDTH 13 0
BBX 11 11 1 14
BITMAP
1F00
20C0
4E40
91A0
A0A0
A0A0
A0A0
91A0
4E40
2080
1F00
ENDCHAR
STARTCHAR uni0308.case
ENCODING -1
SWIDTH 0 0
DWIDTH 0 0
BBX 14 6 2 28
BITMAP
7038
8844
8484
8484
8844
7038
ENDCHAR
STARTCHAR divide.case
ENCODING -1
SWIDTH 618 0
DWIDTH 20 0
BBX 16 17 2 4
BITMAP
01C0
0340
0220
0340
01C0
0000
FFFF
0000
FFFF
0000
FFFF
0000
01C0
0340
0220
0340
01C0
ENDCHAR
STARTCHAR uni2215.case
ENCODING -1
SWIDTH 483 0
DWIDTH 15 0
BBX 14 25 0 0
BITMAP
0054
0094
00A4
00A8
0128
0148
0150
0250
02B0
02A0
04A0
0560
0540
0940
0A80
0A80
1680
1500
1500
2900
2A00
2A00
5200
5400
D400
ENDCHAR
STARTCHAR dollar.case
ENCODING -1
SWIDTH 660 0
DWIDTH 21 0
BBX 19 29 1 -2
BITMAP
00A000
00A000
00A000
0EAE00
10A100
26AC80
58A340
96A960
A4A4A0
A8A200
A42000
938000
4C7000
270E00
18F300
070CC0
00E340
001D20
00A6A0
08A2A0
A8A2A0
B6ACA0
50A140
4CAE40
32A980
0CA600
02A800
00A000
00A000
ENDCHAR
STARTCHAR eight.case
ENCODING -1
SWIDTH 561 0
DWIDTH 18 0
BBX 16 25 1 0
BITMAP
07E0
1FD8
2C34
53CA
F42A
A825
A815
A815
A425
9389
4862
6718
30E4
4E12
D18A
A46D
A815
A815
A815
B429
53CA
4C36
27C4
1818
07E0
ENDCHAR
STARTCHAR ellipsis.case
ENCODING -1
SWIDTH 766 0
DWIDTH 25 0
BBX 21 5 2 0
BITMAP
A8A8A8
A8A8A8
A8A8A8
A8A8A8
A8A8A8
ENDCHAR
STARTCHAR emdash.case
ENCODING -1
SWIDTH 790 0
DWIDTH 25 0
BBX 22 5 2 10
BITMAP
FFFFFC
000000
FFFFFC
000000
FFFFFC
ENDCHAR
STARTCHAR endash.case
ENCODING -1
SWIDTH 721 0
DWIDTH 23 0
BBX 19 5 2 10
BITMAP
FFFFE0
000000
FFFFE0
000000
FFFFE0
ENDCHAR
STARTCHAR equal.case
ENCODING -1
SWIDTH 618 0
DWIDTH 20 0
BBX 16 14 2 6
BITMAP
FFFF
0000
FFFF
0000
FFFF
0000
0000
0000
0000
FFFF
0000
FFFF
0000
FFFF
ENDCHAR
STARTCHAR Euro.case
ENCODING -1
SWIDTH 767 0
DWIDTH 25 0
BBX 24 25 0 0
BITMAP
001FE0
006FDC
01B033
02CFCC
05B034
096018
0AC000
168000
000000
FFFF00
000000
000000
FFFF00
FFFF00
000000
168000
0A8000
0A4000
052018
049864
024FC8
013033
008FC4
007038
000FE0
ENDCHAR
STARTCHAR exclam.case
ENCODING -1
SWIDTH 262 0
DWIDTH 8 0
BBX 5 25 2 0
BITMAP
A8
A8
A8
A8
A8
A8
A8
A8
A8
A8
A8
A8
A8
A8
A8
A8
A8
A8
00
00
A8
A8
A8
A8
A8
ENDCHAR
STARTCHAR exclamdown.case
ENCODING -1
SWIDTH 262 0
DWIDTH 8 0
BBX 5 25 2 -5
BITMAP
A8
A8
A8
A8
A8
00
00
A8
A8
A8
A8
A8
A8
A8
A8
A8
A8
A8
A8
A8
A8
A8
A8
A8
A8
ENDCHAR
STARTCHAR five.case
ENCODING -1
SWIDTH 558 0
DWIDTH 18 0
BBX 16 25 1 0
BITMAP
7FFE
7FFE
0000
7FFE
0000
0000
5400
5400
5400
55E0
5418
540C
55E6
55F2
5429
0029
0015
A815
A825
B429
53CA
4C36
27CC
1818
07E0
ENDCHAR
STARTCHAR four.case
ENCODING -1
SWIDTH 585 0
DWIDTH 19 0
BBX 17 25 1 0
BITMAP
01A800
014800
025000
029000
04A000
052000
094000
0A4000
128000
148000
250000
290000
4A5400
525400
945400
005400
FE5580
005400
FE5580
005400
FE5580
005400
005400
005400
005400
ENDCHAR
STARTCHAR uni2074.case
ENCODING -1
SWIDTH 312 0
DWIDTH 10 0
BBX 8 12 1 13
BITMAP
16
34
28
68
50
D0
05
F5
05
F5
05
05
ENDCHAR
STARTCHAR fraction.case
ENCODING -1
SWIDTH 655 0
DWIDTH 21 0
BBX 17 25 2 0
BITMAP
000280
000580
000D00
000A00
001200
001400
002400
002800
005800
00D000
00A000
012000
014000
024000
028000
058000
0D0000
0A0000
120000
140000
240000
280000
580000
D00000
A00000
ENDCHAR
STARTCHAR gravecomb.case
ENCODING -1
SWIDTH 0 0
DWIDTH 0 0
BBX 7 7 2 27
BITMAP
A0
90
50
68
2C
14
1A
ENDCHAR
STARTCHAR greater.case
ENCODING -1
SWIDTH 677 0
DWIDTH 22 0
BBX 19 22 1 2
BITMAP
800000
600000
980000
C60000
330000
CCC000
633000
198C00
066600
019980
00C660
013300
038C80
0C6200
199800
666000
98C000
330000
CC0000
300000
600000
800000
ENDCHAR
STARTCHAR guillemotleft.case
ENCODING -1
SWIDTH 666 0
DWIDTH 21 0
BBX 18 17 2 4
BITMAP
020040
040180
190240
320CC0
4C1900
B22640
863080
6C0900
902600
CC1B00
A62CC0
9A3240
641980
3206C0
080300
060080
020040
ENDCHAR
STARTCHAR guillemotright.case
ENCODING -1
SWIDTH 666 0
DWIDTH 21 0
BBX 18 17 2 4
BITMAP
802000
C01800
A02C00
983200
641980
B22640
C610C0
6C0B00
120640
640980
993340
B22CC0
4C1900
902600
600C00
C03000
802000
ENDCHAR
STARTCHAR guilsinglleft.case
ENCODING -1
SWIDTH 338 0
DWIDTH 11 0
BBX 7 17 2 4
BITMAP
02
04
1A
32
4C
B2
86
6C
90
CC
A6
9A
64
32
08
06
02
ENDCHAR
STARTCHAR guilsinglright.case
ENCODING -1
SWIDTH 338 0
DWIDTH 11 0
BBX 7 17 2 4
BITMAP
80
C0
A0
98
64
B2
C6
6C
12
64
9A
B2
4C
90
60
C0
80
ENDCHAR
STARTCHAR hyphen.case
ENCODING -1
SWIDTH 445 0
DWIDTH 14 0
BBX 11 5 2 10
BITMAP
FFE0
0000
FFE0
0000
FFE0
ENDCHAR
STARTCHAR less.case
ENCODING -1
SWIDTH 677 0
DWIDTH 22 0
BBX 19 22 1 2
BITMAP
000020
000060
000180
000620
000CC0
003320
00C460
019980
0C6600
330C00
18D000
E66000
199800
0C6600
033100
00CCC0
003320
001980
000660
0001A0
0000C0
000020
ENDCHAR
STARTCHAR logicalnot.case
ENCODING -1
SWIDTH 618 0
DWIDTH 20 0
BBX 16 11 2 4
BITMAP
FFFF
0000
FFFF
0000
FFFF
0000
0015
0015
0015
0015
0015
ENDCHAR
STARTCHAR uni00B5.case
ENCODING -1
SWIDTH 792 0
DWIDTH 25 0
BBX 23 32 2 -7
BITMAP
A802A0
A802A0
A802A0
A802A0
A802A0
A802A0
A802A0
A802A0
A802A0
A802A0
A802A0
A802A0
A802A0
A802A0
A802A0
A802A0
A802A0
A804A0
A80550
AA0958
A9F2CE
AA0CB0
ABF14E
AC0630
ABF81E
A80000
A80000
A80000
A80000
A80000
A80000
A80000
ENDCHAR
STARTCHAR minus.case
ENCODING -1
SWIDTH 618 0
DWIDTH 20 0
BBX 16 5 2 10
BITMAP
FFFF
0000
FFFF
0000
FFFF
ENDCHAR
STARTCHAR multiply.case
ENCODING -1
SWIDTH 580 0
DWIDTH 19 0
BBX 16 15 1 5
BITMAP
1818
2424
5248
C893
2524
1248
0490
0920
1248
2494
4932
524B
2424
0810
0808
ENDCHAR
STARTCHAR nine.case
ENCODING -1
SWIDTH 558 0
DWIDTH 18 0
BBX 16 25 1 1
BITMAP
07E0
1818
27C4
4832
53CA
A429
A835
A815
A815
A815
9415
4BD5
47D5
2015
1815
07D5
0015
0015
A815
A835
A42A
53CA
6834
1FD8
07E0
ENDCHAR
STARTCHAR numbersign.case
ENCODING -1
SWIDTH 776 0
DWIDTH 25 0
BBX 21 25 2 0
BITMAP
0542B0
0542A0
0542A0
0942A0
0A8000
6ABFF8
0A8000
6ABFF8
0A8000
52BFF8
148000
150540
150A40
000A80
FFEAB0
000A80
FFEAB0
000A80
FFD2B0
001480
2A1500
2A1500
2A1500
521500
541500
ENDCHAR
STARTCHAR one.case
ENCODING -1
SWIDTH 378 0
DWIDTH 12 0
BBX 10 25 1 0
BITMAP
EA40
0A40
EA40
0A40
EA40
0A40
0A40
0A40
0A40
0A40
0A40
0A40
0A40
0A40
0A40
0A40
0A40
0A40
0A40
0A40
0A40
0A40
0A40
0A40
0A40
ENDCHAR
STARTCHAR onehalf.case
ENCODING -1
SWIDTH 735 0
DWIDTH 24 0
BBX 20 25 2 0
BITMAP
D40160
140240
D40280
140480
140500
140B00
141A00
141400
142400
142800
144800
005000
00B000
01A000
0143C0
024420
028590
048950
050090
0B0120
1A06C0
140000
240FF0
280000
580FF0
ENDCHAR
STARTCHAR onequarter.case
ENCODING -1
SWIDTH 722 0
DWIDTH 23 0
BBX 20 26 2 -1
BITMAP
D40160
140240
D40280
140480
140500
140B00
141A00
141400
142400
142800
144800
005000
00B000
01A000
014340
024280
028680
048500
050D00
0B0A00
1A0090
141E90
240090
281E90
580090
000090
ENDCHAR
STARTCHAR uni00B9.case
ENCODING -1
SWIDTH 306 0
DWIDTH 10 0
BBX 6 11 2 14
BITMAP
D4
14
D4
14
14
14
14
14
14
14
14
ENDCHAR
STARTCHAR ordfeminine.case
ENCODING -1
SWIDTH 456 0
DWIDTH 15 0
BBX 11 11 2 14
BITMAP
0A00
1600
1500
2500
2C80
2A80
5280
5F40
5140
BF40
A0A0
ENDCHAR
STARTCHAR ordmasculine.case
ENCODING -1
SWIDTH 489 0
DWIDTH 16 0
BBX 12 12 2 13
BITMAP
1F00
20C0
4F20
90B0
A050
A050
A050
A050
90B0
4F20
30C0
1F00
ENDCHAR
STARTCHAR paragraph.case
ENCODING -1
SWIDTH 893 0
DWIDTH 29 0
BBX 26 25 1 0
BITMAP
0FFFFFC0
18000000
67FFFFC0
58000000
97FFFFC0
AC000000
A8029140
A8029140
AC029140
97FA9140
58029140
67FA9140
18029140
0FFA9140
00029140
00029140
00029140
00029140
00029140
00029140
00029140
00029140
00029140
00029140
00029140
ENDCHAR
STARTCHAR parenleft.case
ENCODING -1
SWIDTH 290 0
DWIDTH 9 0
BBX 9 29 1 -2
BITMAP
1A80
1500
1500
2A00
2A00
4A00
5400
5400
5400
9400
A800
A800
A800
A800
A800
A800
A800
A800
A800
9400
5400
5400
5400
4A00
2A00
2A00
1500
1500
1A80
ENDCHAR
STARTCHAR parenright.case
ENCODING -1
SWIDTH 290 0
DWIDTH 9 0
BBX 9 29 -1 -1
BITMAP
FC00
5400
4A00
2A00
2A00
1500
1500
1500
1280
0A80
0A80
0A80
0A80
0A80
0A80
0A80
0A80
0A80
0A80
0A80
1280
1500
1500
1500
2A00
2A00
4A00
5400
FC00
ENDCHAR
STARTCHAR percent.case
ENCODING -1
SWIDTH 827 0
DWIDTH 26 0
BBX 25 25 1 0
BITMAP
1F003580
2EC02B00
51E05A00
A0A09400
A0A0AC00
A0A16800
91A25000
4E62B000
20C4A000
1F0D4000
000AC000
00138000
00B40000
01280000
0348F800
02D18600
04A27B00
0D228D00
0B450500
12C50480
14850500
25028D00
6B027B00
52018600
B400F800
ENDCHAR
STARTCHAR period.case
ENCODING -1
SWIDTH 262 0
DWIDTH 8 0
BBX 5 5 2 0
BITMAP
A8
A8
A8
A8
A8
ENDCHAR
STARTCHAR periodcentered.case
ENCODING -1
SWIDTH 262 0
DWIDTH 8 0
BBX 5 5 2 10
BITMAP
A8
A8
A8
A8
A8
ENDCHAR
STARTCHAR plus.case
ENCODING -1
SWIDTH 616 0
DWIDTH 20 0
BBX 16 16 2 5
BITMAP
0540
0540
0540
0540
0540
0540
F54F
0540
F54F
0540
F54F
0540
0540
0540
0540
0540
ENDCHAR
STARTCHAR plusminus.case
ENCODING -1
SWIDTH 618 0
DWIDTH 20 0
BBX 16 23 2 0
BITMAP
0540
0540
0540
0540
0540
0540
F54F
0540
F54F
0540
F54F
0540
0540
0540
0540
0540
0000
0000
FFFF
0000
FFFF
0000
FFFF
ENDCHAR
STARTCHAR question.case
ENCODING -1
SWIDTH 598 0
DWIDTH 19 0
BBX 16 25 2 0
BITMAP
0FE0
37F8
783C
D3D4
AC6A
A82A
A82A
0029
002A
00CA
0192
0364
02C8
0490
0520
0540
0540
0540
0000
0000
0540
0540
0540
0540
0540
ENDCHAR
STARTCHAR questiondown.case
ENCODING -1
SWIDTH 598 0
DWIDTH 19 0
BBX 16 25 2 -5
BITMAP
0540
0540
0540
0540
0540
0000
0000
0540
0540
0540
0940
1B40
2680
4C80
9B00
B600
AC00
A800
A829
A82A
AC6A
53D6
783C
1FD8
0FE0
ENDCHAR
STARTCHAR quotedbl.case
ENCODING -1
SWIDTH 464 0
DWIDTH 15 0
BBX 13 8 1 17
BITMAP
A8A8
A8A8
A8A8
A8A8
A8A8
A8A8
A8A8
A8A8
ENDCHAR
STARTCHAR quotedblbase.case
ENCODING -1
SWIDTH 464 0
DWIDTH 15 0
BBX 13 8 1 -3
BITMAP
A8A8
A8A8
A8A8
A8A8
A8A8
2828
2828
2828
ENDCHAR
STARTCHAR quotedblleft.case
ENCODING -1
SWIDTH 464 0
DWIDTH 15 0
BBX 13 8 1 18
BITMAP
A0A0
A0A0
A0A0
A8A8
A8A8
A8A8
A8A8
A8A8
ENDCHAR
STARTCHAR quotedblright.case
ENCODING -1
SWIDTH 464 0
DWIDTH 15 0
BBX 13 8 1 17
BITMAP
A8A8
A8A8
A8A8
A8A8
A8A8
2828
2828
2828
ENDCHAR
STARTCHAR quoteleft.case
ENCODING -1
SWIDTH 212 0
DWIDTH 7 0
BBX 5 8 1 18
BITMAP
A0
A0
A0
A8
A8
A8
A8
A8
ENDCHAR
STARTCHAR quoteright.case
ENCODING -1
SWIDTH 212 0
DWIDTH 7 0
BBX 5 8 1 17
BITMAP
A8
A8
A8
A8
A8
28
28
28
ENDCHAR
STARTCHAR quotesinglbase.case
ENCODING -1
SWIDTH 212 0
DWIDTH 7 0
BBX 5 8 1 -3
BITMAP
A8
A8
A8
A8
A8
28
28
28
ENDCHAR
STARTCHAR quotesingle.case
ENCODING -1
SWIDTH 212 0
DWIDTH 7 0
BBX 5 8 1 17
BITMAP
A8
A8
A8
A8
A8
A8
A8
A8
ENDCHAR
STARTCHAR registered.case
ENCODING -1
SWIDTH 895 0
DWIDTH 29 0
BBX 27 25 1 0
BITMAP
007F8000
01FFF000
06C06800
0B001E00
14000F00
28000500
78BF8280
50A06140
50BFA140
A0A0A140
A0BFA160
A0A060A0
A0BF80A0
A0A28120
A0A2C160
90A14140
50A14140
58A1A240
68000480
24000D00
13001B00
09C06600
063F8C00
01807000
007F8000
ENDCHAR
STARTCHAR uni030A.case
ENCODING -1
SWIDTH 0 0
DWIDTH 0 0
BBX 6 7 2 27
BITMAP
78
CC
84
84
84
CC
78
ENDCHAR
STARTCHAR section.case
ENCODING -1
SWIDTH 645 0
DWIDTH 21 0
BBX 19 32 1 -4
BITMAP
03F800
0C0700
100080
21FC40
27FB60
2A0680
2A0000
2B8000
287000
340E00
1BC300
063880
11E680
241A40
498940
560540
540940
547280
530C80
68F100
260C00
11E300
0E1C80
03C680
003A40
000D40
2C0940
93F280
4C0C80
23F100
180600
07F800
ENDCHAR
STARTCHAR semicolon.case
ENCODING -1
SWIDTH 338 0
DWIDTH 11 0
BBX 7 20 2 -3
BITMAP
2A
2A
2A
2A
2A
00
00
00
00
00
00
00
2A
4A
52
54
54
B4
A8
A8
ENDCHAR
STARTCHAR seven.case
ENCODING -1
SWIDTH 505 0
DWIDTH 16 0
BBX 14 25 1 0
BITMAP
FFFC
0000
FFFC
0000
FFFC
0000
00AC
00A8
00A8
0148
0150
0150
0250
02A0
02A0
04A0
0520
0540
0540
0B40
0A80
0A80
1280
1480
1500
ENDCHAR
STARTCHAR six.case
ENCODING -1
SWIDTH 558 0
DWIDTH 18 0
BBX 16 25 1 0
BITMAP
07E0
1FF8
2C34
53CA
6429
A815
A815
A800
A800
ABE0
A818
A80C
ABE6
ABF2
A829
A829
A815
A815
A825
A429
53CA
4C36
27CC
1818
07E0
ENDCHAR
STARTCHAR slash.case
ENCODING -1
SWIDTH 504 0
DWIDTH 16 0
BBX 16 29 0 -2
BITMAP
002D
002A
004A
0052
0054
0094
00A4
00A8
0128
0158
0150
0250
02B0
02A0
04A0
0540
0540
0940
0A80
0A80
1480
1500
1500
2900
2A00
2A00
5200
5400
D400
ENDCHAR
STARTCHAR uni00AD.case
ENCODING -1
SWIDTH 445 0
DWIDTH 14 0
BBX 11 5 2 10
BITMAP
FFE0
0000
FFE0
0000
FFE0
ENDCHAR
STARTCHAR sterling.case
ENCODING -1
SWIDTH 618 0
DWIDTH 20 0
BBX 19 25 0 0
BITMAP
03FC00
0FFB00
1E0680
2DF340
2B0D20
4A04C0
4A0200
2A0000
2D0000
000000
7FFC00
000000
7FFC00
000000
7FFC00
000000
1E8000
6D0000
020000
000000
FFFFE0
000000
FFFFE0
000000
FFFFE0
ENDCHAR
STARTCHAR three.case
ENCODING -1
SWIDTH 558 0
DWIDTH 18 0
BBX 16 25 1 0
BITMAP
07E0
1FF8
6834
53CA
B42A
A815
A815
0035
0009
00E2
001A
000C
00E6
00F2
0029
0029
0015
A815
A825
9429
53CA
4C36
27CC
1818
07E0
ENDCHAR
STARTCHAR threequarters.case
ENCODING -1
SWIDTH 722 0
DWIDTH 23 0
BBX 20 26 2 -1
BITMAP
780160
C40240
BA0280
AA0480
020500
180B00
041A00
1A1400
AA2400
BA2800
C44800
785000
00B000
01A000
014340
024280
028680
048500
050D00
0B0A00
1A0090
141E90
240090
281E90
580090
000090
ENDCHAR
STARTCHAR uni00B3.case
ENCODING -1
SWIDTH 332 0
DWIDTH 11 0
BBX 7 12 2 13
BITMAP
78
C4
BA
AA
02
18
04
1A
AA
BA
C4
78
ENDCHAR
STARTCHAR tildecomb.case
ENCODING -1
SWIDTH 0 0
DWIDTH 0 0
BBX 12 4 2 27
BITMAP
7810
8C10
8620
81C0
ENDCHAR
STARTCHAR trademark.case
ENCODING -1
SWIDTH 850 0
DWIDTH 27 0
BBX 26 13 0 13
BITMAP
FFE90340
00098340
FFE98540
0A094940
0A093B40
0A099540
0A095D40
0A096940
0A093140
0A091140
0A090140
0A090140
0A090140
ENDCHAR
STARTCHAR two.case
ENCODING -1
SWIDTH 558 0
DWIDTH 18 0
BBX 16 25 1 0
BITMAP
07E0
1FD8
2C34
53CA
B42A
A825
A815
0015
0025
0069
00DA
0092
0124
0248
0490
0920
1240
3480
6D00
0000
7FFE
0000
7FFE
0000
7FFE
ENDCHAR
STARTCHAR uni00B2.case
ENCODING -1
SWIDTH 339 0
DWIDTH 11 0
BBX 7 11 2 14
BITMAP
7C
C6
BA
AA
1A
36
4C
90
FE
00
FE
ENDCHAR
STARTCHAR underscore.case
ENCODING -1
SWIDTH 667 0
DWIDTH 21 0
BBX 18 5 2 0
BITMAP
FFFFC0
000000
FFFFC0
000000
FFFFC0
ENDCHAR
STARTCHAR yen.case
ENCODING -1
SWIDTH 769 0
DWIDTH 25 0
BBX 24 25 0 0
BITMAP
D6002D
6B004A
2500D6
1480A4
1A4168
094258
05A690
0295A0
025140
016A40
00A480
009680
004A00
000000
002A00
07AAF0
002A00
07AAF0
002A00
07AAF0
002A00
002A00
002A00
002A00
002A00
ENDCHAR
STARTCHAR zero.case
ENCODING -1
SWIDTH 558 0
DWIDTH 18 0
BBX 16 25 1 0
BITMAP
07E0
1FF8
2C34
53CA
642A
A835
A815
A815
A815
A815
A815
A815
A815
A815
A815
A815
A815
A815
A835
A429
53CA
4C32
27C4
1818
07E0
ENDCHAR
ENDFONT
